<svg width="48" height="40" viewBox="0 0 48 40" fill="none" xmlns="http://www.w3.org/2000/svg">
<path d="M8 11.5063C8.26937 10.8926 8.75125 10.6963 9.40188 10.7057C11.0988 10.7294 12.7963 10.7169 14.4938 10.7101C14.6956 10.7094 14.7969 10.7726 14.9062 10.9501C15.1312 11.3163 15.4075 11.6513 15.6813 12.0244C15.415 12.0244 15.14 12.0332 14.865 12.0232C13.5062 11.9744 12.8406 13.0107 12.8562 14.0144C12.8969 16.6482 12.895 19.2838 12.8575 21.9176C12.8438 22.8594 13.3212 23.8126 14.6213 23.9769C14.6213 24.0844 14.6213 24.1963 14.6213 24.3088C14.6213 26.0269 14.6213 27.7451 14.6213 29.4632C14.6213 29.9376 14.345 30.2969 13.8656 30.3101C12.7944 30.3394 11.7213 30.3432 10.65 30.3101C10.1288 30.2938 9.755 29.8063 9.75375 29.2476C9.75 27.4357 9.75188 25.6238 9.75188 23.8119C9.75188 22.9894 9.75437 22.1669 9.75 21.3438C9.74875 21.0332 9.62063 20.8682 9.325 20.8919C8.69563 20.9426 8.27687 20.6719 8 20.1313V11.5063V11.5063Z" fill="white"/>
<path d="M40 20.0688C39.77 20.6513 39.3569 20.9276 38.7181 20.8901C38.3594 20.8695 38.2494 21.0213 38.2494 21.4257C38.2494 23.977 38.2494 26.5288 38.2494 29.0801C38.2494 29.9345 37.8463 30.337 36.9869 30.3376C36.1431 30.3376 35.2994 30.3482 34.4563 30.3307C34.225 30.3257 33.9806 30.2713 33.7694 30.1776C33.4975 30.0576 33.37 29.8332 33.3725 29.5032C33.3875 27.7538 33.3794 26.0038 33.3794 24.2545C33.3794 24.1626 33.3875 24.0701 33.3919 23.9801C33.5775 23.9376 33.7525 23.912 33.9175 23.8576C34.6281 23.6251 35.125 22.9607 35.1269 22.2063C35.1331 19.3945 35.1344 16.5826 35.1269 13.7707C35.1244 12.8863 34.4538 12.1438 33.5781 12.0595C33.1606 12.0195 32.7363 12.0526 32.32 12.0526C32.6256 11.6101 32.895 11.2101 33.1794 10.8201C33.2231 10.7601 33.3331 10.7182 33.4125 10.7182C35.2456 10.7126 37.0781 10.7113 38.9113 10.7157C39.4569 10.717 39.7788 11.0463 40 11.5051V20.0688Z" fill="white"/>
<path d="M28.7437 20.4138C28.7437 21.83 28.7437 23.2456 28.7437 24.6619C28.7437 25.4363 28.3 25.8738 27.5194 25.8744C26.7506 25.875 26.7469 25.88 26.7469 26.6363C26.7469 29.3125 26.7475 31.9881 26.7469 34.6644C26.7469 35.4694 26.3406 35.8844 25.5469 35.8875C24.5056 35.8913 23.4644 35.8913 22.4231 35.8875C21.6706 35.8844 21.2531 35.4575 21.2531 34.6994C21.2531 31.9506 21.2531 29.2019 21.2531 26.4531C21.2531 25.96 21.1669 25.8763 20.6706 25.8756C20.5662 25.8756 20.4625 25.8781 20.3581 25.8756C19.735 25.8613 19.2612 25.4119 19.2594 24.7913C19.2525 21.8444 19.2525 18.8981 19.2594 15.9513C19.2606 15.3475 19.7344 14.8894 20.3419 14.8881C22.7781 14.8825 25.215 14.8819 27.6512 14.8881C28.2962 14.89 28.7406 15.3669 28.7425 16.0419C28.7469 17.4994 28.7437 18.9575 28.7437 20.415V20.4138Z" fill="white"/>
<path d="M27.6694 26.6026C28.6831 26.4313 29.2256 25.9757 29.4069 25.1413C29.4375 25.0007 29.4413 24.8526 29.4413 24.7076C29.4431 21.8226 29.4444 18.9382 29.4419 16.0532C29.4413 14.9369 28.6975 14.1907 27.5881 14.1851C27.1513 14.1826 26.7138 14.1851 26.2038 14.1851C26.3594 14.0369 26.4863 13.9394 26.5831 13.8188C26.81 13.5357 27.0381 13.2513 27.235 12.9476C27.3244 12.8101 27.3981 12.7407 27.5694 12.7413C29.4856 12.7476 31.4019 12.7413 33.3181 12.7476C33.9838 12.7494 34.4275 13.2026 34.4281 13.8751C34.4319 16.6138 34.4319 19.3532 34.4281 22.0919C34.4275 22.7926 33.9725 23.2419 33.275 23.2507C32.73 23.2576 32.6775 23.3113 32.6775 23.8694C32.6775 26.6082 32.6775 29.3476 32.6775 32.0863C32.6775 32.9482 32.2544 33.3744 31.3975 33.3738C30.5438 33.3732 29.6894 33.3763 28.8356 33.3726C28.1094 33.3694 27.6488 32.9332 27.6456 32.2169C27.6375 30.4151 27.6431 28.6138 27.6444 26.8119C27.6444 26.7413 27.66 26.6701 27.6675 26.6032L27.6694 26.6026Z" fill="white"/>
<path d="M20.3538 26.6014C20.3538 26.7482 20.3538 26.882 20.3538 27.0157C20.3538 28.6926 20.3538 30.3695 20.3538 32.0464C20.3538 32.972 19.9481 33.3732 19.0169 33.3732C18.215 33.3732 17.4131 33.3732 16.6113 33.3732C15.7331 33.3732 15.32 32.9545 15.32 32.0664C15.3206 29.317 15.3206 26.567 15.32 23.8176C15.32 23.3295 15.2444 23.2532 14.7656 23.2495C14.0094 23.2432 13.5694 22.802 13.5688 22.0407C13.5675 19.3432 13.5669 16.6457 13.5681 13.9482C13.5681 13.1776 13.9944 12.7451 14.7619 12.7445C16.6369 12.742 18.5113 12.747 20.3863 12.7407C20.5756 12.7401 20.6675 12.8051 20.7756 12.9632C21.0606 13.3795 21.3863 13.7676 21.7094 14.1857C21.2831 14.1857 20.8238 14.1826 20.3644 14.1864C19.4725 14.1939 18.7844 14.7426 18.5944 15.6045C18.5613 15.7551 18.5588 15.9139 18.5588 16.0695C18.5569 18.9126 18.5569 21.7564 18.5575 24.5995C18.5575 25.7682 19.1413 26.4345 20.3544 26.602L20.3538 26.6014Z" fill="white"/>
<path d="M24.0182 8.20068C25.6557 8.20506 27.0032 9.57443 26.9925 11.2219C26.9819 12.8376 25.6038 14.1938 23.9838 14.1844C22.3613 14.1744 20.9988 12.8026 21.0094 11.1882C21.02 9.53881 22.3719 8.19631 24.0188 8.20131L24.0182 8.20068Z" fill="white"/>
<path d="M32.7644 9.42319C32.7594 10.8663 31.5938 12.0326 30.1663 12.0232C28.7006 12.0138 27.5569 10.8626 27.5619 9.40069C27.5663 7.94881 28.7306 6.81194 30.205 6.82006C31.6206 6.82756 32.7694 7.99631 32.7644 9.42319Z" fill="white"/>
<path d="M17.8325 12.0244C16.4 12.0257 15.2432 10.8682 15.2319 9.42256C15.2213 7.98944 16.3832 6.82256 17.8238 6.81944C19.285 6.81631 20.4388 7.96944 20.4375 9.43131C20.4363 10.8676 19.275 12.0226 17.8319 12.0244H17.8325Z" fill="white"/>
<path d="M12.2782 5.00071C13.6644 5.00696 14.7613 6.11884 14.7588 7.51509C14.7563 8.89884 13.6382 10.0101 12.2513 10.0057C10.8513 10.0013 9.74316 8.87821 9.75191 7.47259C9.76066 6.09321 10.8838 4.99446 12.2782 5.00071Z" fill="white"/>
<path d="M35.7644 5.00069C37.1638 5.01069 38.2581 6.13256 38.2475 7.54756C38.2369 8.91506 37.1 10.0132 35.7038 10.0044C34.3306 9.99569 33.2238 8.85756 33.24 7.47069C33.2563 6.08006 34.37 4.99069 35.7644 5.00006V5.00069Z" fill="white"/>
</svg>
