<svg width="40" height="40" viewBox="0 0 40 40" fill="none" xmlns="http://www.w3.org/2000/svg">
<g clip-path="url(#clip0_1_284)">
<path fill-rule="evenodd" clip-rule="evenodd" d="M34.0417 18.3333C34.0417 25.1679 28.5012 30.7084 21.6667 30.7084H21.6667V33.3334H21.6667C29.951 33.3334 36.6667 26.6176 36.6667 18.3333C36.6667 10.0491 29.951 3.33333 21.6667 3.33333C13.3824 3.33333 6.66669 10.0491 6.66669 18.3333C6.66669 18.9683 6.70614 19.5941 6.78274 20.2084H9.43282C9.33988 19.5969 9.29169 18.9708 9.29169 18.3333C9.29169 11.4988 14.8322 5.95833 21.6667 5.95833C28.5012 5.95833 34.0417 11.4988 34.0417 18.3333ZM31.6667 18.4712C31.6667 21.9325 30.3168 23.7037 28.292 23.7037C26.2537 23.7037 24.9038 21.9325 24.9038 18.4712C24.9038 15.0234 26.2537 13.3333 28.292 13.3333C30.3168 13.3333 31.6667 15.0234 31.6667 18.4712ZM26.7801 18.4712C26.7801 21.2835 27.4281 22.1488 28.292 22.1488C29.1559 22.1488 29.7904 21.2835 29.7904 18.4712C29.7904 15.6724 29.1559 14.8612 28.292 14.8612C27.4281 14.8612 26.7801 15.6724 26.7801 18.4712ZM24.3538 23.5144H18.3334V21.9054H20.4932V15.5778H18.6708V14.3474C19.6832 14.1581 20.3582 13.9012 21.0061 13.5091H22.4775V21.9054H24.3538V23.5144ZM4.69699 29.2607H2.42426C2.22334 29.2607 2.03065 29.3404 1.88858 29.4822C1.7465 29.624 1.66669 29.8163 1.66669 30.0168V37.5773C1.66669 37.7778 1.7465 37.9701 1.88858 38.1119C2.03065 38.2537 2.22334 38.3333 2.42426 38.3333H4.69699V29.2607ZM11.2826 23.4444L6.43411 28.2832C6.29203 28.4249 6.21218 28.6172 6.21214 28.8177V37.5773C6.21214 37.7778 6.29196 37.9701 6.43403 38.1119C6.5761 38.2537 6.7688 38.3333 6.96972 38.3333H15.1743C15.3244 38.3334 15.4711 38.2889 15.5959 38.2056C15.7207 38.1223 15.8178 38.0039 15.875 37.8653L18.2197 32.1836C18.295 32.0008 18.3336 31.8051 18.3334 31.6075V30.0168C18.3334 29.6157 18.1737 29.2311 17.8896 28.9476C17.6054 28.664 17.22 28.5047 16.8182 28.5047H11.9697L12.8432 25.0798C12.8986 24.8627 12.8884 24.6342 12.8138 24.423C12.7393 24.2117 12.6037 24.0272 12.4243 23.8928L11.7781 23.4089C11.705 23.3543 11.6147 23.3278 11.5237 23.3343C11.4326 23.3408 11.347 23.3799 11.2826 23.4444ZM15.7083 21.6667H14.2788V18.9874H11.6667V17.6792H14.2788V15H15.7083V17.6792H18.3334V18.9874H15.7083V21.6667Z" fill="#718899"/>
</g>
<defs>
<clipPath id="clip0_1_284">
<rect width="40" height="40" fill="white"/>
</clipPath>
</defs>
</svg>
