<svg width="48" height="40" viewBox="0 0 48 40" fill="none" xmlns="http://www.w3.org/2000/svg">
<path d="M17.1695 17.865V21.249C15.3249 22.3164 14.0848 24.3107 14.0848 26.5934C14.0848 30.0021 16.8456 32.7629 20.2543 32.7629C22.537 32.7629 24.5314 31.5229 25.5987 29.6782H28.9811C27.7118 33.2719 24.283 35.8477 20.2543 35.8477C15.1428 35.8477 11 31.7049 11 26.5934C11 22.5631 13.5758 19.136 17.1695 17.865ZM23.3391 28.1358C20.7834 28.1358 18.7119 26.0644 18.7119 23.5086V17.3391C18.7119 14.7834 20.7834 12.7119 23.3391 12.7119C25.8948 12.7119 27.9662 14.7834 27.9662 17.3391V25.051H30.178C31.1775 25.051 32.1106 25.5353 32.6859 26.3405L32.8232 26.5487L37 33.5125L34.3563 35.0981L30.1765 28.1358H23.3391ZM23.3391 5C25.4676 5 27.1951 6.72747 27.1951 8.85596C27.1951 10.9845 25.4676 12.7119 23.3391 12.7119C21.2106 12.7119 19.4831 10.9845 19.4831 8.85596C19.4831 6.72747 21.2106 5 23.3391 5Z" fill="#718899"/>
</svg>
