<svg width="24" height="24" viewBox="0 0 24 24" fill="none" xmlns="http://www.w3.org/2000/svg">
<g clip-path="url(#clip0_1_583)">
<path fill-rule="evenodd" clip-rule="evenodd" d="M18.8293 7C18.9398 6.68722 19 6.35064 19 6C19 5.64936 18.9398 5.31278 18.8293 5H20C20.5523 5 21 5.44772 21 6C21 6.55228 20.5523 7 20 7H18.8293ZM13.1707 7H4C3.44772 7 3 6.55228 3 6C3 5.44772 3.44772 5 4 5H13.1707C13.0602 5.31278 13 5.64936 13 6C13 6.35064 13.0602 6.68722 13.1707 7Z" fill="black"/>
<path fill-rule="evenodd" clip-rule="evenodd" d="M11.8922 13C11.9624 12.6816 12 12.3463 12 12C12 11.6537 11.9624 11.3184 11.8921 11H20C20.5523 11 21 11.4477 21 12C21 12.5523 20.5523 13 20 13H11.8922ZM6.10784 13H4C3.44772 13 3 12.5523 3 12C3 11.4477 3.44772 11 4 11H6.10785C6.03755 11.3184 6 11.6537 6 12C6 12.3463 6.03755 12.6816 6.10784 13Z" fill="black"/>
<circle cx="9.00001" cy="12" r="1.8" fill="black"/>
<circle cx="13" cy="18" r="1.8" fill="black"/>
<circle cx="16" cy="6.00001" r="1.8" fill="black"/>
<path fill-rule="evenodd" clip-rule="evenodd" d="M15.8921 19C15.9624 18.6816 16 18.3463 16 18C16 17.6537 15.9624 17.3184 15.8922 17H20C20.5523 17 21 17.4477 21 18C21 18.5523 20.5523 19 20 19H15.8921ZM10.1079 19H4C3.44772 19 3 18.5523 3 18C3 17.4477 3.44772 17 4 17H10.1078C10.0376 17.3184 10 17.6537 10 18C10 18.3463 10.0376 18.6816 10.1079 19Z" fill="black"/>
</g>
<defs>
<clipPath id="clip0_1_583">
<rect width="24" height="24" fill="white"/>
</clipPath>
</defs>
</svg>
