<svg width="24" height="24" viewBox="0 0 24 24" fill="none" xmlns="http://www.w3.org/2000/svg">
<g clip-path="url(#clip0_1_536)">
<path d="M9.22222 4H14.5556L16.3333 5.77778H19.8889C20.1246 5.77778 20.3507 5.87143 20.5174 6.03813C20.6841 6.20483 20.7778 6.43092 20.7778 6.66667V19.1111C20.7778 19.3469 20.6841 19.573 20.5174 19.7397C20.3507 19.9064 20.1246 20 19.8889 20H3.88889C3.65314 20 3.42705 19.9064 3.26035 19.7397C3.09365 19.573 3 19.3469 3 19.1111V6.66667C3 6.43092 3.09365 6.20483 3.26035 6.03813C3.42705 5.87143 3.65314 5.77778 3.88889 5.77778H7.44444L9.22222 4ZM11.8889 18.2222C13.3034 18.2222 14.6599 17.6603 15.6601 16.6601C16.6603 15.6599 17.2222 14.3034 17.2222 12.8889C17.2222 11.4744 16.6603 10.1178 15.6601 9.11765C14.6599 8.11746 13.3034 7.55556 11.8889 7.55556C10.4744 7.55556 9.11785 8.11746 8.11765 9.11765C7.11746 10.1178 6.55556 11.4744 6.55556 12.8889C6.55556 14.3034 7.11746 15.6599 8.11765 16.6601C9.11785 17.6603 10.4744 18.2222 11.8889 18.2222ZM11.8889 16.4444C10.9459 16.4444 10.0415 16.0698 9.37473 15.403C8.70794 14.7363 8.33333 13.8319 8.33333 12.8889C8.33333 11.9459 8.70794 11.0415 9.37473 10.3747C10.0415 9.70794 10.9459 9.33333 11.8889 9.33333C12.8319 9.33333 13.7363 9.70794 14.403 10.3747C15.0698 11.0415 15.4444 11.9459 15.4444 12.8889C15.4444 13.8319 15.0698 14.7363 14.403 15.403C13.7363 16.0698 12.8319 16.4444 11.8889 16.4444Z" fill="black"/>
</g>
<defs>
<clipPath id="clip0_1_536">
<rect width="24" height="24" fill="white"/>
</clipPath>
</defs>
</svg>
