<svg width="24" height="24" viewBox="0 0 24 24" fill="none" xmlns="http://www.w3.org/2000/svg">
<g clip-path="url(#clip0_1_432)">
<path d="M20 10.9778V18.0889C20 18.2775 19.9157 18.4584 19.7657 18.5917C19.6157 18.7251 19.4122 18.8 19.2 18.8H4.8C4.58783 18.8 4.38434 18.7251 4.23431 18.5917C4.08429 18.4584 4 18.2775 4 18.0889V10.9778H20ZM20 9.55556H4V6.71111C4 6.52251 4.08429 6.34164 4.23431 6.20828C4.38434 6.07492 4.58783 6 4.8 6H19.2C19.4122 6 19.6157 6.07492 19.7657 6.20828C19.9157 6.34164 20 6.52251 20 6.71111V9.55556ZM14.4 15.2444V16.6667H17.6V15.2444H14.4Z" fill="black"/>
</g>
<defs>
<clipPath id="clip0_1_432">
<rect width="24" height="24" fill="white"/>
</clipPath>
</defs>
</svg>
