<svg width="24" height="24" viewBox="0 0 24 24" fill="none" xmlns="http://www.w3.org/2000/svg">
<g clip-path="url(#clip0_1_508)">
<path d="M3.88889 4H19.8889C20.1246 4 20.3507 4.09365 20.5174 4.26035C20.6841 4.42705 20.7778 4.65314 20.7778 4.88889V19.1111C20.7778 19.3469 20.6841 19.573 20.5174 19.7397C20.3507 19.9064 20.1246 20 19.8889 20H3.88889C3.65314 20 3.42705 19.9064 3.26035 19.7397C3.09365 19.573 3 19.3469 3 19.1111V4.88889C3 4.65314 3.09365 4.42705 3.26035 4.26035C3.42705 4.09365 3.65314 4 3.88889 4ZM8.77778 13.7778V15.5556H11V17.3333H12.7778V15.5556H13.6667C14.256 15.5556 14.8213 15.3214 15.238 14.9047C15.6548 14.4879 15.8889 13.9227 15.8889 13.3333C15.8889 12.744 15.6548 12.1787 15.238 11.762C14.8213 11.3452 14.256 11.1111 13.6667 11.1111H10.1111C9.99324 11.1111 9.88019 11.0643 9.79684 10.9809C9.71349 10.8976 9.66667 10.7845 9.66667 10.6667C9.66667 10.5488 9.71349 10.4357 9.79684 10.3524C9.88019 10.269 9.99324 10.2222 10.1111 10.2222H15V8.44444H12.7778V6.66667H11V8.44444H10.1111C9.52174 8.44444 8.95651 8.67857 8.53976 9.09532C8.12302 9.51207 7.88889 10.0773 7.88889 10.6667C7.88889 11.256 8.12302 11.8213 8.53976 12.238C8.95651 12.6548 9.52174 12.8889 10.1111 12.8889H13.6667C13.7845 12.8889 13.8976 12.9357 13.9809 13.0191C14.0643 13.1024 14.1111 13.2155 14.1111 13.3333C14.1111 13.4512 14.0643 13.5643 13.9809 13.6476C13.8976 13.731 13.7845 13.7778 13.6667 13.7778H8.77778Z" fill="black"/>
</g>
<defs>
<clipPath id="clip0_1_508">
<rect width="24" height="24" fill="white"/>
</clipPath>
</defs>
</svg>
