<svg width="24" height="24" viewBox="0 0 24 24" fill="none" xmlns="http://www.w3.org/2000/svg">
<g clip-path="url(#clip0_1_391)">
<path d="M12 21C7.0293 21 3 16.9707 3 12C3 7.0293 7.0293 3 12 3C16.9707 3 21 7.0293 21 12C21 16.9707 16.9707 21 12 21ZM8.85 13.8V15.6H11.1V17.4H12.9V15.6H13.8C14.3967 15.6 14.969 15.3629 15.391 14.941C15.8129 14.519 16.05 13.9467 16.05 13.35C16.05 12.7533 15.8129 12.181 15.391 11.759C14.969 11.3371 14.3967 11.1 13.8 11.1H10.2C10.0807 11.1 9.96619 11.0526 9.8818 10.9682C9.79741 10.8838 9.75 10.7693 9.75 10.65C9.75 10.5307 9.79741 10.4162 9.8818 10.3318C9.96619 10.2474 10.0807 10.2 10.2 10.2H15.15V8.4H12.9V6.6H11.1V8.4H10.2C9.60326 8.4 9.03097 8.63705 8.60901 9.05901C8.18705 9.48097 7.95 10.0533 7.95 10.65C7.95 11.2467 8.18705 11.819 8.60901 12.241C9.03097 12.6629 9.60326 12.9 10.2 12.9H13.8C13.9193 12.9 14.0338 12.9474 14.1182 13.0318C14.2026 13.1162 14.25 13.2307 14.25 13.35C14.25 13.4693 14.2026 13.5838 14.1182 13.6682C14.0338 13.7526 13.9193 13.8 13.8 13.8H8.85Z" fill="black"/>
</g>
<defs>
<clipPath id="clip0_1_391">
<rect width="24" height="24" fill="white"/>
</clipPath>
</defs>
</svg>
