<svg width="24" height="24" viewBox="0 0 24 24" fill="none" xmlns="http://www.w3.org/2000/svg">
<g clip-path="url(#clip0_1_428)">
<path d="M21 15.9439C20.9996 17.1239 20.5789 18.2683 19.8075 19.1878C19.0362 20.1072 17.9604 20.7466 16.7583 21L16.1841 19.3486C16.7099 19.2656 17.21 19.0717 17.6482 18.7811C18.0865 18.4905 18.452 18.1102 18.7185 17.6678H16.5C16.0226 17.6678 15.5648 17.486 15.2272 17.1624C14.8896 16.8388 14.7 16.3999 14.7 15.9422V12.4909C14.7 12.0333 14.8896 11.5944 15.2272 11.2707C15.5648 10.9471 16.0226 10.7653 16.5 10.7653H19.1442C18.9246 9.09741 18.0776 7.56365 16.7623 6.45183C15.4469 5.34002 13.7536 4.72655 12 4.72655C10.2464 4.72655 8.55306 5.34002 7.23772 6.45183C5.92237 7.56365 5.07543 9.09741 4.8558 10.7653H7.5C7.97739 10.7653 8.43523 10.9471 8.77279 11.2707C9.11036 11.5944 9.3 12.0333 9.3 12.4909V15.9422C9.3 16.3999 9.11036 16.8388 8.77279 17.1624C8.43523 17.486 7.97739 17.6678 7.5 17.6678H4.8C4.32261 17.6678 3.86477 17.486 3.52721 17.1624C3.18964 16.8388 3 16.3999 3 15.9422V11.6281C3 6.86281 7.0293 3 12 3C16.9707 3 21 6.86281 21 11.6281V15.9439Z" fill="black"/>
</g>
<defs>
<clipPath id="clip0_1_428">
<rect width="24" height="24" fill="white"/>
</clipPath>
</defs>
</svg>
