<svg width="45" height="40" viewBox="0 0 45 40" fill="none" xmlns="http://www.w3.org/2000/svg">
<path d="M27.7895 23.1564V33.4338C27.7895 33.7367 27.6712 34.0272 27.4606 34.2413C27.25 34.4555 26.9644 34.5758 26.6666 34.5758H25.5438C25.2461 34.5758 24.9605 34.4555 24.7499 34.2413C24.5393 34.0272 24.421 33.7367 24.421 33.4338V32.2919H8.70173V33.4338C8.70173 33.7367 8.58344 34.0272 8.37287 34.2413C8.1623 34.4555 7.87671 34.5758 7.57893 34.5758H6.45612C6.15833 34.5758 5.87274 34.4555 5.66218 34.2413C5.45161 34.0272 5.33331 33.7367 5.33331 33.4338V23.1564L8.11787 16.5468C8.29115 16.1357 8.5793 15.7854 8.94657 15.5394C9.31384 15.2934 9.74406 15.1624 10.1838 15.1628H13.193V12.8789H19.9298V15.1628H22.9401C23.3795 15.1629 23.8092 15.294 24.176 15.54C24.5428 15.786 24.8306 16.1361 25.0038 16.5468L27.7895 23.1564ZM7.77654 23.1564H25.3462L22.9401 17.4467H10.1838L7.77766 23.1564H7.77654ZM10.3859 28.8661C10.8326 28.8661 11.261 28.6856 11.5769 28.3644C11.8927 28.0432 12.0702 27.6075 12.0702 27.1532C12.0702 26.6989 11.8927 26.2632 11.5769 25.942C11.261 25.6207 10.8326 25.4403 10.3859 25.4403C9.93926 25.4403 9.51088 25.6207 9.19503 25.942C8.87918 26.2632 8.70173 26.6989 8.70173 27.1532C8.70173 27.6075 8.87918 28.0432 9.19503 28.3644C9.51088 28.6856 9.93926 28.8661 10.3859 28.8661ZM22.7368 28.8661C23.1835 28.8661 23.6119 28.6856 23.9277 28.3644C24.2436 28.0432 24.421 27.6075 24.421 27.1532C24.421 26.6989 24.2436 26.2632 23.9277 25.942C23.6119 25.6207 23.1835 25.4403 22.7368 25.4403C22.2901 25.4403 21.8618 25.6207 21.5459 25.942C21.2301 26.2632 21.0526 26.6989 21.0526 27.1532C21.0526 27.6075 21.2301 28.0432 21.5459 28.3644C21.8618 28.6856 22.2901 28.8661 22.7368 28.8661Z" fill="white"/>
<g clip-path="url(#clip0_1_105)">
<path d="M32.2025 16.8248L27.258 20L28.6022 14.0741L24.2029 10.1117L29.9776 9.62521L32.2025 4L34.4274 9.62521L40.2029 10.1117L35.8027 14.0741L37.1469 20L32.2025 16.8248Z" fill="white"/>
</g>
<defs>
<clipPath id="clip0_1_105">
<rect width="24" height="24" fill="white" transform="translate(20.2029)"/>
</clipPath>
</defs>
</svg>
