<svg width="24" height="24" viewBox="0 0 24 24" fill="none" xmlns="http://www.w3.org/2000/svg">
<g clip-path="url(#clip0_1_575)">
<path d="M20 9.22221V19.8826C20.0008 19.9994 19.9786 20.1151 19.9347 20.2233C19.8908 20.3314 19.826 20.4299 19.744 20.513C19.6621 20.5961 19.5645 20.6623 19.457 20.7077C19.3495 20.7531 19.234 20.7769 19.1173 20.7778H4.88267C4.64872 20.7778 4.42435 20.6849 4.25884 20.5195C4.09333 20.3542 4.00024 20.1299 4 19.896V3.88178C4 3.40444 4.39733 3 4.88711 3H13.7778V8.33333C13.7778 8.56907 13.8714 8.79517 14.0381 8.96186C14.2048 9.12856 14.4309 9.22221 14.6667 9.22221H20ZM20 7.44444H15.5555V3.00267L20 7.44444ZM8.44444 7.44444V9.22221H11.1111V7.44444H8.44444ZM8.44444 11V12.7778H15.5555V11H8.44444ZM8.44444 14.5555V16.3333H15.5555V14.5555H8.44444Z" fill="black"/>
</g>
<defs>
<clipPath id="clip0_1_575">
<rect width="24" height="24" fill="white"/>
</clipPath>
</defs>
</svg>
