<svg width="24" height="24" viewBox="0 0 24 24" fill="none" xmlns="http://www.w3.org/2000/svg">
<path d="M19.1562 12.4181C19.1562 12.5912 19.0155 12.7314 18.8429 12.7299C18.5174 12.7269 18.1925 12.738 17.867 12.7299C17.6898 12.7253 17.6939 12.8291 17.6762 12.9491C17.3867 14.9039 16.4487 16.4599 14.8067 17.5724C14.0849 18.0614 13.2811 18.3565 12.4201 18.4845C12.2526 18.5093 12.2111 18.5777 12.2131 18.7285C12.2171 19.0641 12.2161 19.4002 12.2151 19.7429C12.2151 19.8851 12.0997 20.0005 11.9575 20.0005H11.1102C10.9791 20.0005 10.8728 19.8942 10.8728 19.7631V18.7533C10.8728 18.6359 10.7913 18.5331 10.6764 18.5083C7.66922 17.8538 6.01202 15.9537 5.41474 13.0174C5.38083 12.8509 5.23505 12.7304 5.06498 12.7304H4.20702C4.09263 12.7304 4 12.6378 4 12.5234V11.4731C4 11.3648 4.08807 11.2772 4.19639 11.2777L5.05941 11.2823C5.05941 11.2823 5.40563 11.2119 5.44005 10.9618C5.63644 9.54002 6.23879 8.30699 7.23746 7.27846C8.17589 6.31218 9.31174 5.70528 10.6511 5.50585C10.8237 5.48004 10.8753 5.41525 10.8712 5.24771C10.8631 4.91414 10.8662 4.58058 10.8672 4.23992C10.8677 4.10731 10.9755 4 11.1076 4H11.9838C12.1114 4 12.2146 4.10326 12.2146 4.23081C12.2146 4.55527 12.2146 4.95059 12.2146 5.22341C12.2146 5.44208 12.2156 5.44106 12.6028 5.52458C15.121 6.06972 16.6927 7.63733 17.4671 10.0528C17.5719 10.3787 17.6159 10.725 17.6762 11.0641C17.7 11.1967 17.7303 11.2706 17.8913 11.2666C18.2046 11.2585 18.5179 11.2686 18.8313 11.2666C19.0104 11.2655 19.1557 11.4113 19.1557 11.5905V12.4181H19.1562ZM16.3981 11.9939C16.4052 10.9477 16.1182 9.99355 15.5665 9.11585C13.9675 6.57184 10.5215 6.09554 8.36621 8.11971C6.47061 9.90041 6.14767 12.824 7.60848 14.9783C9.01512 17.0521 11.6452 17.7389 13.7767 16.5383C15.532 15.5498 16.3288 13.9715 16.3976 11.9939H16.3981Z" fill="black"/>
<path d="M14.3061 11.9823C14.2939 13.4684 13.3332 14.6468 11.8815 14.8705C10.9887 15.0082 10.2259 14.6873 9.60125 14.0399C8.39505 12.7901 8.58436 10.6177 9.98695 9.5952C11.5875 8.42848 13.8571 9.36996 14.2292 11.3577C14.2676 11.5637 14.2808 11.7743 14.3056 11.9828L14.3061 11.9823Z" fill="black"/>
</svg>
