<svg width="24" height="24" viewBox="0 0 24 24" fill="none" xmlns="http://www.w3.org/2000/svg">
<g clip-path="url(#clip0_1_547)">
<path d="M12 16.9091C10.698 16.9091 9.44938 16.3919 8.52875 15.4713C7.60812 14.5506 7.09091 13.302 7.09091 12C7.09091 10.698 7.60812 9.44938 8.52875 8.52875C9.44938 7.60812 10.698 7.09091 12 7.09091C13.302 7.09091 14.5506 7.60812 15.4713 8.52875C16.3919 9.44938 16.9091 10.698 16.9091 12C16.9091 13.302 16.3919 14.5506 15.4713 15.4713C14.5506 16.3919 13.302 16.9091 12 16.9091ZM12 15.2727C12.868 15.2727 13.7004 14.9279 14.3142 14.3142C14.9279 13.7004 15.2727 12.868 15.2727 12C15.2727 11.132 14.9279 10.2996 14.3142 9.68583C13.7004 9.07208 12.868 8.72727 12 8.72727C11.132 8.72727 10.2996 9.07208 9.68583 9.68583C9.07208 10.2996 8.72727 11.132 8.72727 12C8.72727 12.868 9.07208 13.7004 9.68583 14.3142C10.2996 14.9279 11.132 15.2727 12 15.2727ZM11.1818 3H12.8182V5.45455H11.1818V3ZM11.1818 18.5455H12.8182V21H11.1818V18.5455ZM5.05773 6.21464L6.21464 5.05773L7.95 6.79309L6.79309 7.95L5.05773 6.21545V6.21464ZM16.05 17.2069L17.2069 16.05L18.9423 17.7854L17.7854 18.9423L16.05 17.2069ZM17.7854 5.05691L18.9423 6.21464L17.2069 7.95L16.05 6.79309L17.7854 5.05773V5.05691ZM6.79309 16.05L7.95 17.2069L6.21464 18.9423L5.05773 17.7854L6.79309 16.05ZM21 11.1818V12.8182H18.5455V11.1818H21ZM5.45455 11.1818V12.8182H3V11.1818H5.45455Z" fill="black"/>
</g>
<defs>
<clipPath id="clip0_1_547">
<rect width="24" height="24" fill="white"/>
</clipPath>
</defs>
</svg>
