<svg width="24" height="24" viewBox="0 0 24 24" fill="none" xmlns="http://www.w3.org/2000/svg">
<g clip-path="url(#clip0_1_579)">
<path d="M22 6.99327V18.0078C21.9864 18.0501 21.9692 18.0913 21.9603 18.1346C21.7464 19.2111 20.8244 19.9964 19.7365 19.9974C14.5816 20.0021 9.42631 20.0027 4.2715 19.9974C3.0265 19.9964 2.00639 18.9752 2.0043 17.7334C1.99857 14.2446 1.99857 10.7559 2.0043 7.26721C2.00639 6.02481 3.02859 5.00418 4.27202 5.00314C9.42736 4.99897 14.5822 4.99844 19.737 5.00471C20.4779 5.00575 21.0764 5.32874 21.5346 5.91315C21.7855 6.23301 21.9045 6.60766 21.9995 6.99327H22ZM8.25123 16.6699C8.43334 16.6699 8.61544 16.6699 8.79755 16.6699C9.62355 16.6699 10.4496 16.671 11.2756 16.6699C11.7556 16.6689 11.9993 16.4263 12.0008 15.9525C12.0008 15.8549 12.0008 15.7573 12.0008 15.6598C11.9956 14.362 11.011 13.3513 9.71487 13.3341C8.73963 13.3211 7.76335 13.3232 6.78812 13.3341C6.07274 13.3419 5.47633 13.6279 5.01871 14.1815C4.61797 14.6663 4.50318 15.2345 4.49222 15.8544C4.48231 16.4346 4.80634 16.6887 5.32448 16.6773C6.29972 16.6553 7.27548 16.671 8.25123 16.671V16.6699ZM6.17292 10.422C6.17501 11.5731 7.11111 12.5045 8.26062 12.4998C9.40127 12.4951 10.3264 11.5668 10.3295 10.4225C10.3332 9.27246 9.39866 8.33271 8.25175 8.33219C7.10537 8.33219 6.17084 9.2709 6.17292 10.4215V10.422ZM16.5765 10.0009C17.3174 10.0009 18.0589 10.0014 18.7998 10.0009C19.2136 10.0004 19.498 9.74625 19.4996 9.37891C19.5011 9.01105 19.2162 8.75224 18.805 8.75171C17.3226 8.75067 15.8407 8.75119 14.3583 8.75171C14.2874 8.75171 14.2143 8.7538 14.1459 8.77102C13.8287 8.84929 13.6403 9.13001 13.6769 9.46031C13.7102 9.76034 13.9722 9.99672 14.2947 9.9988C15.0554 10.0035 15.8157 10.0004 16.5765 10.0004V10.0009ZM16.5806 13.3305C17.3346 13.3305 18.0886 13.3331 18.8426 13.3294C19.2183 13.3273 19.4896 13.0722 19.4996 12.7267C19.5095 12.3719 19.2392 12.0855 18.8593 12.0839C17.3445 12.0776 15.8303 12.0802 14.3155 12.0823C14.087 12.0823 13.896 12.1726 13.7708 12.3693C13.6419 12.5712 13.6304 12.7888 13.7431 12.9991C13.8595 13.2162 14.0489 13.3299 14.2994 13.3305C15.0601 13.3305 15.8204 13.3305 16.5812 13.3305H16.5806ZM16.5775 15.4213V15.4202C15.8298 15.4202 15.0826 15.4182 14.3348 15.4213C13.9398 15.4229 13.6758 15.6718 13.6722 16.0334C13.6685 16.3929 13.9336 16.6663 14.3181 16.6679C15.8261 16.6731 17.3341 16.6762 18.8421 16.6611C19.0059 16.6595 19.1969 16.5672 19.3248 16.4581C19.5168 16.2943 19.5533 16.0516 19.4526 15.8137C19.3477 15.5653 19.1557 15.4223 18.8781 15.4218C18.1111 15.4197 17.344 15.4213 16.577 15.4213H16.5775Z" fill="black"/>
</g>
<defs>
<clipPath id="clip0_1_579">
<rect width="24" height="24" fill="white"/>
</clipPath>
</defs>
</svg>
