<svg width="24" height="24" viewBox="0 0 24 24" fill="none" xmlns="http://www.w3.org/2000/svg">
<g clip-path="url(#clip0_1_458)">
<path fill-rule="evenodd" clip-rule="evenodd" d="M11.6274 20L16.3137 15.3137C17.2406 14.3868 17.8718 13.2059 18.1275 11.9203C18.3832 10.6347 18.252 9.30219 17.7503 8.0912C17.2487 6.8802 16.3993 5.84514 15.3094 5.11692C14.2195 4.38869 12.9382 4 11.6274 4C10.3166 4 9.0353 4.38869 7.94543 5.11692C6.85556 5.84514 6.00611 6.8802 5.50449 8.0912C5.00288 9.30219 4.87163 10.6347 5.12734 11.9203C5.38305 13.2059 6.01425 14.3868 6.9411 15.3137L11.6274 20ZM14.2 9.264H14.98V8.01H16.186V7.26H14.98V6H14.2V7.26H13V8.01H14.2V9.264ZM10.55 15.72C12.03 15.72 13.3 14.94 13.3 13.55C13.3 12.59 12.69 11.99 11.87 11.74V11.69C12.66 11.37 13.06 10.79 13.06 10.05C13.06 8.72 12.05 8 10.51 8C9.63 8 8.89 8.34 8.2 8.92L9.1 10.01C9.55 9.61 9.93 9.39 10.43 9.39C10.98 9.39 11.28 9.67 11.28 10.18C11.28 10.77 10.88 11.15 9.61 11.15V12.41C11.17 12.41 11.51 12.79 11.51 13.43C11.51 13.99 11.06 14.28 10.37 14.28C9.79 14.28 9.27 13.98 8.82 13.56L8 14.68C8.54 15.31 9.37 15.72 10.55 15.72Z" fill="black"/>
</g>
<defs>
<clipPath id="clip0_1_458">
<rect width="24" height="24" fill="white"/>
</clipPath>
</defs>
</svg>
