<svg width="24" height="24" viewBox="0 0 24 24" fill="none" xmlns="http://www.w3.org/2000/svg">
<g clip-path="url(#clip0_1_452)">
<path fill-rule="evenodd" clip-rule="evenodd" d="M11.6274 20L16.3137 15.3137C17.2406 14.3868 17.8718 13.2059 18.1275 11.9203C18.3832 10.6347 18.252 9.30219 17.7503 8.0912C17.2487 6.8802 16.3993 5.84514 15.3094 5.11692C14.2195 4.38869 12.9382 4 11.6274 4C10.3166 4 9.0353 4.38869 7.94543 5.11692C6.85556 5.84514 6.00611 6.8802 5.50449 8.0912C5.00288 9.30219 4.87163 10.6347 5.12734 11.9203C5.38305 13.2059 6.01425 14.3868 6.9411 15.3137L11.6274 20ZM14.25 14.58H9.09V13.56C10.95 11.87 12.2 10.52 12.2 9.44C12.2 8.76 11.83 8.39 11.23 8.39C10.72 8.39 10.33 8.73 9.97 9.11L9 8.15C9.73 7.37 10.41 7 11.47 7C12.91 7 13.91 7.92 13.91 9.34C13.91 10.62 12.81 12.03 11.67 13.18C12.04 13.13 12.55 13.08 12.89 13.08H14.25V14.58Z" fill="black"/>
</g>
<defs>
<clipPath id="clip0_1_452">
<rect width="24" height="24" fill="white"/>
</clipPath>
</defs>
</svg>
