<svg width="24" height="24" viewBox="0 0 24 24" fill="none" xmlns="http://www.w3.org/2000/svg">
<g clip-path="url(#clip0_1_406)">
<path d="M16.3137 15.3137L11.6274 20L6.9411 15.3137C6.01425 14.3868 5.38305 13.2059 5.12734 11.9203C4.87163 10.6347 5.00288 9.30219 5.50449 8.0912C6.00611 6.8802 6.85556 5.84514 7.94543 5.11692C9.0353 4.38869 10.3166 4 11.6274 4C12.9382 4 14.2195 4.38869 15.3094 5.11692C16.3993 5.84514 17.2487 6.8802 17.7503 8.0912C18.252 9.30219 18.3832 10.6347 18.1275 11.9203C17.8718 13.2059 17.2406 14.3868 16.3137 15.3137ZM11.6274 12.1001C12.018 12.1001 12.3926 11.945 12.6688 11.6688C12.945 11.3926 13.1002 11.018 13.1002 10.6274C13.1002 10.2368 12.945 9.86216 12.6688 9.58596C12.3926 9.30977 12.018 9.1546 11.6274 9.1546C11.2368 9.1546 10.8622 9.30977 10.586 9.58596C10.3098 9.86216 10.1547 10.2368 10.1547 10.6274C10.1547 11.018 10.3098 11.3926 10.586 11.6688C10.8622 11.945 11.2368 12.1001 11.6274 12.1001Z" fill="black"/>
</g>
<defs>
<clipPath id="clip0_1_406">
<rect width="24" height="24" fill="white"/>
</clipPath>
</defs>
</svg>
