<svg width="24" height="24" viewBox="0 0 24 24" fill="none" xmlns="http://www.w3.org/2000/svg">
<g clip-path="url(#clip0_1_571)">
<path d="M5.68421 17.3158H7.47368V19.1053H18.2105V4.78947H7.47368V6.57895H5.68421V3.89474C5.68421 3.65744 5.77848 3.42986 5.94627 3.26206C6.11407 3.09427 6.34165 3 6.57895 3H19.1053C19.3426 3 19.5701 3.09427 19.7379 3.26206C19.9057 3.42986 20 3.65744 20 3.89474V20C20 20.2373 19.9057 20.4649 19.7379 20.6327C19.5701 20.8005 19.3426 20.8947 19.1053 20.8947H6.57895C6.34165 20.8947 6.11407 20.8005 5.94627 20.6327C5.77848 20.4649 5.68421 20.2373 5.68421 20V17.3158ZM7.47368 11.0526H13.7368V12.8421H7.47368V15.5263L3 11.9474L7.47368 8.36842V11.0526Z" fill="black"/>
</g>
<defs>
<clipPath id="clip0_1_571">
<rect width="24" height="24" fill="white"/>
</clipPath>
</defs>
</svg>
