<svg width="24" height="24" viewBox="0 0 24 24" fill="none" xmlns="http://www.w3.org/2000/svg">
<g clip-path="url(#clip0_1_410)">
<path d="M8.82844 19.0711L6 22L3.17156 19.0711C2.61215 18.4918 2.23119 17.7537 2.07686 16.9502C1.92252 16.1467 2.00174 15.3139 2.30449 14.557C2.60724 13.8001 3.11993 13.1532 3.77773 12.6981C4.43552 12.2429 5.20888 12 6 12C6.79112 12 7.56448 12.2429 8.22227 12.6981C8.88007 13.1532 9.39276 13.8001 9.69551 14.557C9.99826 15.3139 10.0775 16.1467 9.92314 16.9502C9.76881 17.7537 9.38785 18.4918 8.82844 19.0711ZM6 17.0626C6.23575 17.0626 6.46184 16.9656 6.62854 16.793C6.79524 16.6204 6.88889 16.3862 6.88889 16.1421C6.88889 15.898 6.79524 15.6638 6.62854 15.4912C6.46184 15.3186 6.23575 15.2216 6 15.2216C5.76425 15.2216 5.53816 15.3186 5.37146 15.4912C5.20476 15.6638 5.11111 15.898 5.11111 16.1421C5.11111 16.3862 5.20476 16.6204 5.37146 16.793C5.53816 16.9656 5.76425 17.0626 6 17.0626Z" fill="black"/>
<path d="M21.2678 6.24263L19.5 8L17.7322 6.24263C17.3826 5.89506 17.1445 5.45222 17.048 4.97012C16.9516 4.48803 17.0011 3.98832 17.1903 3.5342C17.3795 3.08007 17.7 2.69193 18.1111 2.41884C18.5222 2.14576 19.0055 2 19.5 2C19.9945 2 20.4778 2.14576 20.8889 2.41884C21.3 2.69193 21.6205 3.08007 21.8097 3.5342C21.9989 3.98832 22.0484 4.48803 21.952 4.97012C21.8555 5.45222 21.6174 5.89506 21.2678 6.24263ZM19.5 5.03754C19.6473 5.03754 19.7887 4.97936 19.8928 4.87578C19.997 4.77221 20.0556 4.63173 20.0556 4.48526C20.0556 4.33878 19.997 4.19831 19.8928 4.09474C19.7887 3.99116 19.6473 3.93297 19.5 3.93297C19.3527 3.93297 19.2114 3.99116 19.1072 4.09474C19.003 4.19831 18.9444 4.33878 18.9444 4.48526C18.9444 4.63173 19.003 4.77221 19.1072 4.87578C19.2114 4.97936 19.3527 5.03754 19.5 5.03754Z" fill="black"/>
<path fill-rule="evenodd" clip-rule="evenodd" d="M10.0038 7.5C9.45433 7.5 9.0398 7.75566 8.78479 8.11914L7.96616 7.5448C8.3974 6.93015 9.10974 6.5 10.0038 6.5H11.7204V7.5H10.0038ZM16.298 7.5H12.8648V6.5H16.298V7.5ZM18.5 7.5H17V6.5H17.5L18.5 7.5ZM8.5 9.02259C8.50047 9.46661 8.69347 9.91377 9.14358 10.2289L10.3441 11.0692L9.77067 11.8885L8.57012 11.0481C7.8377 10.5354 7.5008 9.7745 7.5 9.02366L8.5 9.02259ZM11.1445 11.6295L13.5456 13.3103L12.9721 14.1295L10.571 12.4487L11.1445 11.6295ZM14.346 13.8705L16.7471 15.5513L16.1736 16.3705L13.7725 14.6897L14.346 13.8705ZM17.5474 16.1115L18.748 16.9519C19.4804 17.4646 19.8173 18.2255 19.8181 18.9763L18.8181 18.9774C18.8176 18.5334 18.6246 18.0862 18.1745 17.7712L16.974 16.9308L17.5474 16.1115ZM19.3519 20.4552C18.9207 21.0698 18.2083 21.5 17.3143 21.5H15.9824V20.5H17.3143C17.8637 20.5 18.2783 20.2443 18.5333 19.8809L19.3519 20.4552ZM11.5427 21.5H7.5L8.5 20.5H11.5427V21.5ZM15.0945 21.5H12.4306V20.5H15.0945V21.5Z" fill="black"/>
</g>
<defs>
<clipPath id="clip0_1_410">
<rect width="24" height="24" fill="white"/>
</clipPath>
</defs>
</svg>
