<svg width="24" height="24" viewBox="0 0 24 24" fill="none" xmlns="http://www.w3.org/2000/svg">
<g clip-path="url(#clip0_1_420)">
<path d="M7.564 17.1282L4 20V4.82051C4 4.6029 4.08429 4.3942 4.23431 4.24032C4.38434 4.08645 4.58783 4 4.8 4H19.2C19.4122 4 19.6157 4.08645 19.7657 4.24032C19.9157 4.3942 20 4.6029 20 4.82051V16.3077C20 16.5253 19.9157 16.734 19.7657 16.8879C19.6157 17.0418 19.4122 17.1282 19.2 17.1282H7.564ZM8 9.74359V11.3846H9.6V9.74359H8ZM11.2 9.74359V11.3846H12.8V9.74359H11.2ZM14.4 9.74359V11.3846H16V9.74359H14.4Z" fill="black"/>
</g>
<defs>
<clipPath id="clip0_1_420">
<rect width="24" height="24" fill="white"/>
</clipPath>
</defs>
</svg>
