<svg width="24" height="24" viewBox="0 0 24 24" fill="none" xmlns="http://www.w3.org/2000/svg">
<g clip-path="url(#clip0_1_528)">
<path d="M12.0004 2C12.5877 2 13.1692 2.11567 13.7118 2.34041C14.2544 2.56515 14.7474 2.89456 15.1626 3.30982C15.5779 3.72509 15.9073 4.21808 16.1321 4.76065C16.3568 5.30322 16.4725 5.88475 16.4725 6.47202V10.0496C16.4725 11.2357 16.0013 12.3732 15.1626 13.2118C14.324 14.0505 13.1865 14.5217 12.0004 14.5217C10.8144 14.5217 9.67692 14.0505 8.83825 13.2118C7.99958 12.3732 7.52843 11.2357 7.52843 10.0496V6.47202C7.52843 5.28597 7.99958 4.14849 8.83825 3.30982C9.67692 2.47116 10.8144 2 12.0004 2ZM4 10.944H5.80222C6.01893 12.433 6.76449 13.7942 7.90249 14.7786C9.0405 15.763 10.4949 16.3047 11.9996 16.3047C13.5042 16.3047 14.9586 15.763 16.0966 14.7786C17.2346 13.7942 17.9802 12.433 18.1969 10.944H20C19.7966 12.7585 18.9827 14.4501 17.6917 15.7412C16.4007 17.0324 14.7093 17.8465 12.8949 18.0501V21.6769H11.106V18.0501C9.29142 17.8467 7.59978 17.0326 6.30861 15.7415C5.01745 14.4503 4.2034 12.7587 4 10.944Z" fill="black"/>
</g>
<defs>
<clipPath id="clip0_1_528">
<rect width="24" height="24" fill="white"/>
</clipPath>
</defs>
</svg>
