<svg width="24" height="24" viewBox="0 0 24 24" fill="none" xmlns="http://www.w3.org/2000/svg">
<g clip-path="url(#clip0_1_440)">
<path d="M4.53245 4.02095L19.7232 9.07261C19.8018 9.09861 19.8705 9.1481 19.92 9.21437C19.9695 9.28065 19.9974 9.3605 19.9998 9.4431C20.0023 9.52571 19.9792 9.60707 19.9338 9.67617C19.8884 9.74527 19.8227 9.79876 19.7458 9.82939L12.6913 12.6445L9.11673 19.7771C9.08036 19.8498 9.02284 19.9097 8.95172 19.9492C8.88059 19.9887 8.79918 20.0058 8.71815 19.9983C8.63712 19.9908 8.56024 19.959 8.4976 19.9072C8.43496 19.8554 8.38947 19.7859 8.36709 19.7078L4.01546 4.51339C3.9953 4.4428 3.99485 4.36806 4.01415 4.29723C4.03346 4.2264 4.07178 4.16218 4.125 4.1115C4.17821 4.06082 4.24428 4.0256 4.31609 4.00964C4.3879 3.99368 4.46271 3.99759 4.53245 4.02095Z" fill="black"/>
</g>
<defs>
<clipPath id="clip0_1_440">
<rect width="24" height="24" fill="white"/>
</clipPath>
</defs>
</svg>
