<svg width="24" height="24" viewBox="0 0 24 24" fill="none" xmlns="http://www.w3.org/2000/svg">
<g clip-path="url(#clip0_1_424)">
<path d="M19.9991 15.9282V19.0712C19.9992 19.2962 19.914 19.5129 19.7605 19.6775C19.6071 19.8422 19.397 19.9425 19.1725 19.9582C18.7841 19.9849 18.4668 19.9991 18.2214 19.9991C10.3668 19.9991 4 13.6324 4 5.77768C4 5.53236 4.01333 5.21504 4.04089 4.82662C4.05664 4.60214 4.15695 4.39199 4.32159 4.23857C4.48622 4.08516 4.70291 3.9999 4.92795 4H8.07089C8.18114 3.99989 8.28749 4.04076 8.36929 4.11468C8.4511 4.1886 8.5025 4.29028 8.51353 4.39998C8.53397 4.60441 8.55264 4.76707 8.57041 4.89062C8.74706 6.12337 9.10905 7.32233 9.64413 8.44686C9.72857 8.62463 9.67346 8.83706 9.51347 8.95084L7.59536 10.3214C8.76814 13.0541 10.9459 15.2319 13.6786 16.4046L15.0474 14.4901C15.1033 14.4119 15.185 14.3558 15.278 14.3316C15.3711 14.3074 15.4697 14.3166 15.5567 14.3576C16.6811 14.8917 17.8797 15.2528 19.1121 15.4287C19.2356 15.4465 19.3983 15.466 19.6009 15.4856C19.7105 15.4968 19.8119 15.5483 19.8857 15.6301C19.9594 15.7119 20.0001 15.8181 20 15.9282H19.9991Z" fill="black"/>
</g>
<defs>
<clipPath id="clip0_1_424">
<rect width="24" height="24" fill="white"/>
</clipPath>
</defs>
</svg>
