<svg width="24" height="24" viewBox="0 0 24 24" fill="none" xmlns="http://www.w3.org/2000/svg">
<g clip-path="url(#clip0_1_512)">
<path d="M4 20.15C4 18.5183 4.6513 16.9534 5.81061 15.7996C6.96993 14.6458 8.5423 13.9976 10.1818 13.9976C11.8213 13.9976 13.3937 14.6458 14.553 15.7996C15.7123 16.9534 16.3636 18.5183 16.3636 20.15H4ZM10.1818 13.2286C7.62023 13.2286 5.54545 11.1637 5.54545 8.61429C5.54545 6.06489 7.62023 4 10.1818 4C12.7434 4 14.8182 6.06489 14.8182 8.61429C14.8182 11.1637 12.7434 13.2286 10.1818 13.2286ZM17.9091 16.3048H21V17.8429H17.9091V16.3048ZM15.5909 12.4595H21V13.9976H15.5909V12.4595ZM17.1364 8.61429H21V10.1524H17.1364V8.61429Z" fill="black"/>
</g>
<defs>
<clipPath id="clip0_1_512">
<rect width="24" height="24" fill="white"/>
</clipPath>
</defs>
</svg>
