<svg width="24" height="24" viewBox="0 0 24 24" fill="none" xmlns="http://www.w3.org/2000/svg">
<path d="M18.9438 7.6608C18.7678 7.47711 18.4745 7.47711 18.265 7.6775C18.1393 7.80274 18.0219 7.93633 17.8711 8.09497C17.5442 6.62546 16.7146 5.72372 15.3317 5.32295C15.315 5.3146 15.2898 5.3146 15.2647 5.30625H15.2563C15.1306 5.27285 14.9462 5.22275 14.7451 5.1977C14.3931 5.13091 14.1752 5.30625 14.1333 5.55673C14.0914 5.80722 14.2087 6.03265 14.5775 6.09945C15.1055 6.16624 15.4156 6.25809 15.6083 6.34158C16.2704 6.66721 16.8235 7.41866 16.8235 7.91128C16.7397 7.84449 16.6726 7.75264 16.5972 7.66915C16.3877 7.46876 16.0944 7.46041 15.9184 7.65245C15.7424 7.83614 15.7592 8.11167 15.9519 8.32041C16.3207 8.69614 16.6894 9.06351 17.0665 9.43089C17.3096 9.67302 17.561 9.67302 17.804 9.43089C18.1812 9.06351 18.5499 8.68779 18.9187 8.32041C19.1114 8.12837 19.1198 7.84449 18.9438 7.6608Z" fill="black"/>
<path d="M7.97353 15.5593C7.98191 15.2504 8.22495 15.0083 8.54341 15.0166C8.8535 15.0166 9.10492 15.2755 9.09654 15.576C9.08815 15.8766 8.82836 16.1271 8.52665 16.1271C8.21657 16.1188 7.96515 15.8683 7.97353 15.5593Z" fill="black"/>
<path d="M22.9916 12.3699C22.9916 11.7938 22.757 11.3178 22.296 10.9588C21.9357 10.6749 21.5166 10.5914 21.0641 10.5914C18.5248 10.5914 15.9771 10.5914 13.4377 10.5914V10.5998H8.20821C7.12711 10.6332 6.42313 11.3512 6.40637 12.4367V19.1747C6.40637 19.9261 7.01816 20.544 7.7808 20.544C11.4012 20.544 15.0217 20.544 18.6421 20.544C19.4969 20.544 20.3517 20.5524 21.2066 20.544C22.2458 20.5357 23 19.7926 23 18.7656C23 16.6365 23 14.5073 22.9916 12.3699ZM9.28931 19.3333C8.88704 19.3333 8.48477 19.35 8.09926 19.325C7.8227 19.3083 7.64671 19.0995 7.62156 18.824C7.61318 18.7572 7.61318 18.6904 7.61318 18.6236C7.61318 16.5864 7.61318 14.5574 7.61318 12.5202C7.61318 11.9774 7.78918 11.7938 8.33392 11.7938C8.644 11.7938 8.96246 11.7938 9.28931 11.7938V19.3333ZM19.5388 19.325H10.5213V11.8021H19.5388V19.325ZM20.7708 19.3166V11.8021C20.9551 11.8021 21.1311 11.7854 21.3071 11.8021C21.5669 11.8272 21.7513 12.0275 21.7764 12.2864C21.7848 12.3782 21.7848 12.4617 21.7848 12.5536C21.7848 14.5407 21.7681 16.5279 21.7932 18.5067C21.8016 19.2916 21.4245 19.4085 20.7708 19.3166Z" fill="black"/>
<path d="M4.64642 19.3417C4.395 19.3417 4.15196 19.3417 3.90054 19.3417C3.43123 19.3417 3.23009 19.1413 3.23009 18.6737C3.23009 18.3648 3.23009 18.0475 3.23009 17.7386C3.23009 17.7219 3.23847 17.6969 3.25523 17.6635H4.64642V16.4444H3.23847V7.45205H10.7643V8.84641H11.9962C11.9962 7.87787 11.9962 6.90933 11.9962 5.94079C11.9962 5.74875 11.9878 5.54002 11.9376 5.35633C11.7113 4.51303 11.0576 4.01206 10.1441 4.00371C8.04895 3.99536 5.95379 4.00371 3.85864 4.00371C3.36418 4.00371 2.92001 4.154 2.55126 4.50468C2.24956 4.78856 2.10709 5.15594 2.0149 5.54836C2.0149 10.0237 1.98138 18.8491 2.0149 18.9827C2.04842 19.1163 2.10709 19.3668 2.19927 19.5421C2.55126 20.2351 3.1379 20.544 3.90892 20.544C4.15196 20.544 4.40338 20.544 4.64642 20.544V19.3417ZM3.25523 5.59846C3.30552 5.38137 3.47313 5.25613 3.69102 5.22273C3.75807 5.21439 3.82511 5.21439 3.89216 5.21439C5.96218 5.21439 8.02381 5.21439 10.0938 5.21439C10.5883 5.21439 10.781 5.40642 10.781 5.90739C10.781 6.00759 10.781 6.10778 10.781 6.22467H3.21333C3.23009 6.00759 3.21333 5.79885 3.25523 5.59846Z" fill="black"/>
</svg>
