<svg width="24" height="24" viewBox="0 0 24 24" fill="none" xmlns="http://www.w3.org/2000/svg">
<g clip-path="url(#clip0_1_379)">
<path d="M4.82345 15.2943V9.17678C4.82345 8.05354 5.26965 6.97631 6.0639 6.18206C6.85815 5.38781 7.93538 4.94161 9.05862 4.94161C10.1819 4.94161 11.2591 5.38781 12.0533 6.18206C12.8476 6.97631 13.2938 8.05354 13.2938 9.17678V15.7648C13.2938 16.3888 13.5417 16.9873 13.9829 17.4286C14.4242 17.8698 15.0226 18.1177 15.6467 18.1177C16.2707 18.1177 16.8692 17.8698 17.3104 17.4286C17.7516 16.9873 17.9995 16.3888 17.9995 15.7648V9.48736C17.3713 9.26534 16.8418 8.82837 16.5047 8.2537C16.1675 7.67902 16.0443 7.00364 16.1569 6.34694C16.2696 5.69024 16.6108 5.0945 17.1202 4.66503C17.6296 4.23556 18.2744 4 18.9407 4C19.607 4 20.2518 4.23556 20.7612 4.66503C21.2706 5.0945 21.6118 5.69024 21.7244 6.34694C21.8371 7.00364 21.7139 7.67902 21.3767 8.2537C21.0395 8.82837 20.51 9.26534 19.8818 9.48736V15.7648C19.8818 16.8881 19.4356 17.9653 18.6414 18.7595C17.8471 19.5538 16.7699 20 15.6467 20C14.5234 20 13.4462 19.5538 12.6519 18.7595C11.8577 17.9653 11.4115 16.8881 11.4115 15.7648V9.17678C11.4115 8.55276 11.1636 7.9543 10.7224 7.51305C10.2811 7.0718 9.68264 6.82391 9.05862 6.82391C8.4346 6.82391 7.83614 7.0718 7.39489 7.51305C6.95364 7.9543 6.70575 8.55276 6.70575 9.17678V15.2943H9.5292L5.7646 20L2 15.2943H4.82345ZM18.9407 7.76506C19.1903 7.76506 19.4297 7.6659 19.6062 7.4894C19.7827 7.3129 19.8818 7.07352 19.8818 6.82391C19.8818 6.5743 19.7827 6.33491 19.6062 6.15841C19.4297 5.98191 19.1903 5.88276 18.9407 5.88276C18.6911 5.88276 18.4517 5.98191 18.2752 6.15841C18.0987 6.33491 17.9995 6.5743 17.9995 6.82391C17.9995 7.07352 18.0987 7.3129 18.2752 7.4894C18.4517 7.6659 18.6911 7.76506 18.9407 7.76506Z" fill="black"/>
</g>
<defs>
<clipPath id="clip0_1_379">
<rect width="24" height="24" fill="white"/>
</clipPath>
</defs>
</svg>
