<svg width="24" height="24" viewBox="0 0 24 24" fill="none" xmlns="http://www.w3.org/2000/svg">
<g clip-path="url(#clip0_1_567)">
<path d="M10.2774 4.17904C11.4131 3.94089 12.5858 3.94031 13.7217 4.17736C13.7974 4.67686 13.9847 5.15289 14.2697 5.57006C14.5546 5.98722 14.9299 6.3348 15.3677 6.58696C15.8051 6.83998 16.294 6.99114 16.7979 7.02918C17.3018 7.06722 17.8078 6.99118 18.2783 6.8067C19.0514 7.67225 19.637 8.68844 19.9983 9.79133C19.6037 10.1067 19.2853 10.5069 19.0667 10.9623C18.848 11.4176 18.7348 11.9164 18.7354 12.4215C18.7354 13.4857 19.2288 14.4346 20 15.0517C19.6366 16.1537 19.0502 17.1691 18.2774 18.0347C17.8071 17.8503 17.3012 17.7743 16.7975 17.8124C16.2937 17.8504 15.805 18.0015 15.3677 18.2544C14.9303 18.5065 14.5553 18.8538 14.2705 19.2707C13.9857 19.6875 13.7984 20.1632 13.7226 20.6623C12.587 20.901 11.4143 20.9022 10.2783 20.6657C10.2029 20.1657 10.0158 19.6892 9.73085 19.2716C9.44587 18.8539 9.07037 18.506 8.63229 18.2536C8.19479 18.0007 7.70591 17.8497 7.20201 17.8118C6.69811 17.7739 6.19214 17.85 5.72174 18.0347C4.94851 17.1689 4.36288 16.1524 4.00168 15.0492C4.39604 14.734 4.71434 14.334 4.93297 13.879C5.1516 13.4239 5.26494 12.9255 5.26458 12.4207C5.26499 11.9154 5.15151 11.4166 4.93258 10.9612C4.71364 10.5058 4.39488 10.1057 4 9.79049C4.36343 8.68851 4.94979 7.67313 5.72258 6.80754C6.19293 6.99189 6.69877 7.06786 7.20252 7.02982C7.70627 6.99178 8.19496 6.84069 8.63229 6.5878C9.06971 6.33572 9.44474 5.98836 9.72954 5.57151C10.0143 5.15466 10.2016 4.67901 10.2774 4.17988V4.17904ZM12 14.9473C12.6699 14.9473 13.3123 14.6812 13.786 14.2075C14.2597 13.7338 14.5258 13.0914 14.5258 12.4215C14.5258 11.7516 14.2597 11.1092 13.786 10.6355C13.3123 10.1618 12.6699 9.89573 12 9.89573C11.3301 9.89573 10.6877 10.1618 10.214 10.6355C9.74032 11.1092 9.47422 11.7516 9.47422 12.4215C9.47422 13.0914 9.74032 13.7338 10.214 14.2075C10.6877 14.6812 11.3301 14.9473 12 14.9473Z" fill="black"/>
</g>
<defs>
<clipPath id="clip0_1_567">
<rect width="24" height="24" fill="white"/>
</clipPath>
</defs>
</svg>
