<svg width="24" height="24" viewBox="0 0 24 24" fill="none" xmlns="http://www.w3.org/2000/svg">
<g clip-path="url(#clip0_1_516)">
<path d="M10.8274 14.6977V22.5116H3C3 20.4392 3.82467 18.4517 5.29258 16.9863C6.7605 15.5209 8.75142 14.6977 10.8274 14.6977ZM10.8274 13.7209C7.5839 13.7209 4.95684 11.0984 4.95684 7.86047C4.95684 4.62256 7.5839 2 10.8274 2C14.0708 2 16.6979 4.62256 16.6979 7.86047C16.6979 11.0984 14.0708 13.7209 10.8274 13.7209ZM13.3664 19.3978C13.2423 18.8766 13.2423 18.3337 13.3664 17.8125L12.3958 17.2528L13.3742 15.5611L14.3448 16.1208C14.7344 15.7524 15.2053 15.4808 15.7195 15.3277V14.2093H17.6763V15.3277C18.1968 15.482 18.6665 15.7574 19.051 16.1208L20.0216 15.5611L21 17.2528L20.0294 17.8125C20.1533 18.3334 20.1533 18.8759 20.0294 19.3968L21 19.9565L20.0216 21.6482L19.051 21.0885C18.6614 21.4569 18.1905 21.7286 17.6763 21.8816V23H15.7195V21.8816C15.2053 21.7286 14.7344 21.4569 14.3448 21.0885L13.3742 21.6482L12.3958 19.9565L13.3664 19.3978ZM16.6979 17.6279C16.4384 17.6279 16.1895 17.7308 16.006 17.914C15.8225 18.0972 15.7195 18.3456 15.7195 18.6047C15.7195 18.8637 15.8225 19.1121 16.006 19.2953C16.1895 19.4785 16.4384 19.5814 16.6979 19.5814C16.9574 19.5814 17.2062 19.4785 17.3897 19.2953C17.5732 19.1121 17.6763 18.8637 17.6763 18.6047C17.6763 18.3456 17.5732 18.0972 17.3897 17.914C17.2062 17.7308 16.9574 17.6279 16.6979 17.6279Z" fill="black"/>
</g>
<defs>
<clipPath id="clip0_1_516">
<rect width="24" height="24" fill="white"/>
</clipPath>
</defs>
</svg>
