<svg width="24" height="24" viewBox="0 0 24 24" fill="none" xmlns="http://www.w3.org/2000/svg">
<g clip-path="url(#clip0_1_361)">
<path fill-rule="evenodd" clip-rule="evenodd" d="M19.6225 10L18.2548 6.89767C18.1118 6.57319 17.8739 6.29664 17.5708 6.10228C17.2677 5.90793 16.9126 5.80432 16.5495 5.80428H14.0619V4H8.49488V5.80428H6.00827C5.64485 5.80397 5.28933 5.90741 4.98584 6.10179C4.68234 6.29616 4.44423 6.5729 4.30104 6.89767L2 12.1193V20.2385C2 20.4778 2.09775 20.7072 2.27176 20.8764C2.44576 21.0456 2.68176 21.1407 2.92784 21.1407H3.85568C4.10176 21.1407 4.33776 21.0456 4.51176 20.8764C4.68577 20.7072 4.78352 20.4778 4.78352 20.2385V19.3364H12V12.1193H4.01991L6.00827 7.60856H16.5495L17.6036 10H19.6225ZM7.1594 16.2336C6.8984 16.4874 6.5444 16.63 6.17528 16.63C5.80616 16.63 5.45216 16.4874 5.19116 16.2336C4.93015 15.9798 4.78352 15.6356 4.78352 15.2767C4.78352 14.9179 4.93015 14.5737 5.19116 14.3199C5.45216 14.0661 5.80616 13.9235 6.17528 13.9235C6.5444 13.9235 6.8984 14.0661 7.1594 14.3199C7.42041 14.5737 7.56704 14.9179 7.56704 15.2767C7.56704 15.6356 7.42041 15.9798 7.1594 16.2336Z" fill="black"/>
<path fill-rule="evenodd" clip-rule="evenodd" d="M14.7937 17.1029C14.6603 16.5426 14.6603 15.959 14.7937 15.3987L13.7502 14.7971L14.8021 12.9784L15.8455 13.5801C16.2643 13.1841 16.7705 12.892 17.3233 12.7275V11.5252H19.4269V12.7275C19.9865 12.8934 20.4914 13.1895 20.9048 13.5801L21.9482 12.9784L23 14.7971L21.9566 15.3987C22.0898 15.9586 22.0898 16.5419 21.9566 17.1019L23 17.7035L21.9482 19.5222L20.9048 18.9205C20.486 19.3165 19.9797 19.6086 19.4269 19.7731V20.9754H17.3233V19.7731C16.7705 19.6086 16.2643 19.3165 15.8455 18.9205L14.8021 19.5222L13.7502 17.7035L14.7937 17.1029ZM18.3751 15.2003C18.0962 15.2003 17.8286 15.3109 17.6314 15.5078C17.4341 15.7047 17.3233 15.9718 17.3233 16.2503C17.3233 16.5288 17.4341 16.7959 17.6314 16.9928C17.8286 17.1897 18.0962 17.3003 18.3751 17.3003C18.6541 17.3003 18.9216 17.1897 19.1189 16.9928C19.3161 16.7959 19.4269 16.5288 19.4269 16.2503C19.4269 15.9718 19.3161 15.7047 19.1189 15.5078C18.9216 15.3109 18.6541 15.2003 18.3751 15.2003Z" fill="black"/>
</g>
<defs>
<clipPath id="clip0_1_361">
<rect width="24" height="24" fill="white"/>
</clipPath>
</defs>
</svg>
