<svg width="40" height="40" viewBox="0 0 40 40" fill="none" xmlns="http://www.w3.org/2000/svg">
<g clip-path="url(#clip0_1_326)">
<path d="M34.7369 19.2983V31.9298C34.7369 32.3021 34.589 32.6591 34.3258 32.9223C34.0626 33.1855 33.7056 33.3333 33.3333 33.3333H31.9298C31.5576 33.3333 31.2006 33.1855 30.9374 32.9223C30.6742 32.6591 30.5263 32.3021 30.5263 31.9298V30.5263H10.8772V31.9298C10.8772 32.3021 10.7293 32.6591 10.4661 32.9223C10.2029 33.1855 9.84592 33.3333 9.47369 33.3333H8.07018C7.69795 33.3333 7.34096 33.1855 7.07775 32.9223C6.81454 32.6591 6.66667 32.3021 6.66667 31.9298V19.2983L10.1474 11.1747C10.364 10.6695 10.7242 10.2389 11.1832 9.93654C11.6423 9.63414 12.1801 9.4732 12.7298 9.47369H16.4912V6.66667H24.9123V9.47369H28.6751C29.2243 9.47375 29.7615 9.63495 30.22 9.93731C30.6786 10.2397 31.0383 10.6699 31.2547 11.1747L34.7369 19.2983ZM9.72071 19.2983H31.6828L28.6751 12.2807H12.7298L9.72211 19.2983H9.72071ZM12.9825 26.3158C13.5408 26.3158 14.0763 26.094 14.4711 25.6992C14.8659 25.3044 15.0877 24.7689 15.0877 24.2105C15.0877 23.6522 14.8659 23.1167 14.4711 22.7219C14.0763 22.3271 13.5408 22.1053 12.9825 22.1053C12.4241 22.1053 11.8886 22.3271 11.4938 22.7219C11.099 23.1167 10.8772 23.6522 10.8772 24.2105C10.8772 24.7689 11.099 25.3044 11.4938 25.6992C11.8886 26.094 12.4241 26.3158 12.9825 26.3158ZM28.4211 26.3158C28.9794 26.3158 29.5149 26.094 29.9097 25.6992C30.3045 25.3044 30.5263 24.7689 30.5263 24.2105C30.5263 23.6522 30.3045 23.1167 29.9097 22.7219C29.5149 22.3271 28.9794 22.1053 28.4211 22.1053C27.8627 22.1053 27.3272 22.3271 26.9324 22.7219C26.5376 23.1167 26.3158 23.6522 26.3158 24.2105C26.3158 24.7689 26.5376 25.3044 26.9324 25.6992C27.3272 26.094 27.8627 26.3158 28.4211 26.3158Z" fill="white"/>
</g>
<defs>
<clipPath id="clip0_1_326">
<rect width="40" height="40" fill="white"/>
</clipPath>
</defs>
</svg>
