<svg width="24" height="24" viewBox="0 0 24 24" fill="none" xmlns="http://www.w3.org/2000/svg">
<g clip-path="url(#clip0_1_524)">
<path d="M11.5238 3.90476V7.71429H6.11333L4.07143 12.4762H21.0476V21.0476C21.0476 21.3002 20.9473 21.5424 20.7687 21.7211C20.5901 21.8997 20.3478 22 20.0952 22H19.1429C18.8903 22 18.648 21.8997 18.4694 21.7211C18.2908 21.5424 18.1905 21.3002 18.1905 21.0476V20.0952H4.85714V21.0476C4.85714 21.3002 4.7568 21.5424 4.5782 21.7211C4.39959 21.8997 4.15735 22 3.90476 22H2.95238C2.69979 22 2.45755 21.8997 2.27895 21.7211C2.10034 21.5424 2 21.3002 2 21.0476V12.4762L4.3619 6.96381C4.50888 6.62095 4.75329 6.3288 5.06481 6.1236C5.37634 5.9184 5.74125 5.80919 6.11429 5.80952H8.66667V3.90476H11.5238ZM6.28571 14.381C5.90683 14.381 5.54347 14.5315 5.27556 14.7994C5.00765 15.0673 4.85714 15.4306 4.85714 15.8095C4.85714 16.1884 5.00765 16.5518 5.27556 16.8197C5.54347 17.0876 5.90683 17.2381 6.28571 17.2381C6.6646 17.2381 7.02796 17.0876 7.29587 16.8197C7.56378 16.5518 7.71429 16.1884 7.71429 15.8095C7.71429 15.4306 7.56378 15.0673 7.29587 14.7994C7.02796 14.5315 6.6646 14.381 6.28571 14.381ZM16.7619 14.381C16.383 14.381 16.0197 14.5315 15.7518 14.7994C15.4838 15.0673 15.3333 15.4306 15.3333 15.8095C15.3333 16.1884 15.4838 16.5518 15.7518 16.8197C16.0197 17.0876 16.383 17.2381 16.7619 17.2381C17.1408 17.2381 17.5041 17.0876 17.7721 16.8197C18.04 16.5518 18.1905 16.1884 18.1905 15.8095C18.1905 15.4306 18.04 15.0673 17.7721 14.7994C17.5041 14.5315 17.1408 14.381 16.7619 14.381ZM17.7143 2C18.8509 2 19.941 2.45153 20.7447 3.25526C21.5485 4.05898 22 5.14907 22 6.28571C22 7.42236 21.5485 8.51244 20.7447 9.31617C19.941 10.1199 18.8509 10.5714 17.7143 10.5714C16.5776 10.5714 15.4876 10.1199 14.6838 9.31617C13.8801 8.51244 13.4286 7.42236 13.4286 6.28571C13.4286 5.14907 13.8801 4.05898 14.6838 3.25526C15.4876 2.45153 16.5776 2 17.7143 2ZM17.7143 6.92095C17.2467 6.92095 16.819 7.08952 16.4867 7.36857L16.3676 7.4781L17.7143 8.82571L19.06 7.47714C18.8833 7.30046 18.6735 7.16039 18.4426 7.06494C18.2116 6.9695 17.9642 6.92057 17.7143 6.92095ZM17.7143 4.38095C16.6134 4.3793 15.5513 4.78775 14.7352 5.52667L14.5705 5.68381L15.4695 6.58095C15.7639 6.28561 16.1138 6.05137 16.499 5.89168C16.8843 5.732 17.2973 5.65003 17.7143 5.65048C18.4861 5.64931 19.2316 5.93046 19.8105 6.44095L19.959 6.58095L20.8571 5.68286C20.4449 5.26949 19.955 4.94167 19.4156 4.71824C18.8763 4.49481 18.2981 4.38019 17.7143 4.38095Z" fill="black"/>
</g>
<defs>
<clipPath id="clip0_1_524">
<rect width="24" height="24" fill="white"/>
</clipPath>
</defs>
</svg>
