<svg width="24" height="24" viewBox="0 0 24 24" fill="none" xmlns="http://www.w3.org/2000/svg">
<g clip-path="url(#clip0_1_494)">
<path d="M4.72727 10.7018H6.90909V19.4291H4.72727C4.53439 19.4291 4.3494 19.3524 4.21301 19.216C4.07662 19.0797 4 18.8947 4 18.7018V11.4291C4 11.2362 4.07662 11.0512 4.21301 10.9148C4.3494 10.7784 4.53439 10.7018 4.72727 10.7018ZM8.57673 9.76142L13.2313 5.10688C13.2931 5.04484 13.3753 5.00722 13.4627 5.00094C13.5501 4.99466 13.6368 5.02014 13.7069 5.07269L14.3273 5.53815C14.4996 5.66749 14.6297 5.84495 14.7013 6.04815C14.7729 6.25136 14.7827 6.4712 14.7295 6.67997L13.8909 9.97451H18.5455C18.9312 9.97451 19.3012 10.1278 19.574 10.4005C19.8468 10.6733 20 11.0433 20 11.4291V12.9592C20.0002 13.1493 19.9631 13.3376 19.8909 13.5134L17.64 18.9789C17.5851 19.1121 17.4918 19.2261 17.3721 19.3062C17.2523 19.3864 17.1114 19.4291 16.9673 19.4291H9.09091C8.89802 19.4291 8.71304 19.3524 8.57665 19.216C8.44026 19.0797 8.36364 18.8947 8.36364 18.7018V10.2756C8.36368 10.0827 8.44033 9.89778 8.57673 9.76142Z" fill="black"/>
</g>
<defs>
<clipPath id="clip0_1_494">
<rect width="24" height="24" fill="white"/>
</clipPath>
</defs>
</svg>
