<svg width="24" height="24" viewBox="0 0 24 24" fill="none" xmlns="http://www.w3.org/2000/svg">
<g clip-path="url(#clip0_1_383)">
<path d="M7.00623 7.416C8.42288 6.28095 10.1847 5.66377 12 5.66667C13.8889 5.66667 15.6249 6.32089 16.9938 7.416L18.2853 6.12444L19.5422 7.38133L18.2507 8.67289C19.1908 9.84991 19.7796 11.2685 19.9492 12.7653C20.1187 14.2622 19.8622 15.7765 19.2091 17.134C18.5561 18.4915 17.533 19.637 16.2576 20.4387C14.9822 21.2405 13.5064 21.6658 12 21.6658C10.4936 21.6658 9.01776 21.2405 7.74239 20.4387C6.46703 19.637 5.44394 18.4915 4.79087 17.134C4.1378 15.7765 3.88128 14.2622 4.05084 12.7653C4.22041 11.2685 4.80916 9.84991 5.74934 8.67289L4.45778 7.38222L5.71467 6.12533L7.00623 7.41689V7.416ZM12.8889 12.7778V8.77333L8.44445 14.5555H11.1111V18.5555L15.5556 12.7778H12.8889ZM8.44445 3H15.5556V4.77778H8.44445V3Z" fill="black"/>
</g>
<defs>
<clipPath id="clip0_1_383">
<rect width="24" height="24" fill="white"/>
</clipPath>
</defs>
</svg>
