<svg width="24" height="24" viewBox="0 0 24 24" fill="none" xmlns="http://www.w3.org/2000/svg">
<path d="M3 19.5687V13.4239C3.00367 13.3795 3.00955 13.3352 3.01047 13.2907C3.02076 12.8213 3.00845 12.3502 3.04519 11.8828C3.0902 11.3101 3.2199 10.749 3.39883 10.2009C4.05668 8.18544 5.29156 6.59323 7.09869 5.43215C8.29628 4.66288 9.61456 4.18976 11.041 4.04868C11.9287 3.96092 12.8215 3.98748 13.7011 4.16391C16.3834 4.70165 18.4187 6.1368 19.803 8.43421C20.5782 9.72111 20.9869 11.1166 20.9735 12.627C20.9618 13.951 20.9903 18.187 21 19.5588C21.0016 19.7977 20.8042 19.9923 20.5598 19.9926C19.4304 19.9943 14.7514 19.9944 13.2858 19.9946C13.0422 19.9946 12.8449 19.8018 12.8449 19.5639V18.3913H11.152V19.5692C11.152 19.8071 10.9547 20 10.7111 20C9.5837 20 4.90578 19.9998 3.44053 19.9996C3.1973 19.9995 3 19.8065 3 19.5687ZM4.63683 16.7901C4.63683 16.7901 7.2372 14.9003 8.48715 14.0025C8.66938 13.8717 8.74158 13.7421 8.73607 13.521C8.72615 13.1274 8.72211 12.728 8.7774 12.3394C9.01034 10.7031 10.591 9.32481 12.5972 9.66852C13.5531 9.83221 14.2807 10.3533 14.785 11.1617C15.0306 11.5553 15.211 11.977 15.2321 12.4464C15.2514 12.8736 15.2613 13.3011 15.2716 13.7285C15.2731 13.7907 15.2898 13.8315 15.3427 13.8701C16.6568 14.8291 19.3628 16.8025 19.3628 16.8025C19.3628 16.8025 19.3648 14.0925 19.374 12.7705C19.3786 12.1142 19.3001 11.4718 19.117 10.84C18.0972 7.31961 14.5273 5.08772 10.8314 5.67032C9.35737 5.90258 8.06903 6.52072 6.97101 7.50878C5.82891 8.53651 5.11484 9.80726 4.76543 11.2787C4.71307 11.4989 4.64638 11.7227 4.64197 11.9458C4.62397 12.8368 4.62544 13.7281 4.62471 14.6194C4.62415 15.3011 4.63683 16.7901 4.63683 16.7901ZM10.3433 13.6044H13.6627C13.6515 13.2648 13.6466 12.9359 13.6269 12.6078C13.6196 12.4843 13.5935 12.3572 13.5497 12.2412C13.3069 11.5973 12.6424 11.1617 11.9535 11.1855C11.2314 11.2105 10.6255 11.6656 10.4197 12.3445C10.2946 12.7574 10.3681 13.1821 10.3433 13.6044ZM11.1597 15.1979V16.8019H12.8392V15.1979H11.1597Z" fill="black"/>
</svg>
