<svg width="24" height="24" viewBox="0 0 24 24" fill="none" xmlns="http://www.w3.org/2000/svg">
<g clip-path="url(#clip0_1_559)">
<path d="M18.2353 20H6V18.4762C6 17.4658 6.40283 16.4969 7.11989 15.7825C7.83694 15.068 8.80947 14.6667 9.82353 14.6667H14.4118C15.4258 14.6667 16.3984 15.068 17.1154 15.7825C17.8325 16.4969 18.2353 17.4658 18.2353 18.4762V20ZM12.1176 13.1429C11.5151 13.1429 10.9185 13.0246 10.3618 12.7949C9.80514 12.5651 9.29933 12.2284 8.87327 11.8039C8.44722 11.3794 8.10925 10.8755 7.87867 10.3208C7.64809 9.76621 7.52941 9.17176 7.52941 8.57143C7.52941 7.9711 7.64809 7.37665 7.87867 6.82202C8.10925 6.26739 8.44722 5.76344 8.87327 5.33894C9.29933 4.91444 9.80514 4.57772 10.3618 4.34798C10.9185 4.11824 11.5151 4 12.1176 4C13.3345 4 14.5016 4.48163 15.362 5.33894C16.2225 6.19625 16.7059 7.35901 16.7059 8.57143C16.7059 9.78385 16.2225 10.9466 15.362 11.8039C14.5016 12.6612 13.3345 13.1429 12.1176 13.1429Z" fill="black"/>
</g>
<defs>
<clipPath id="clip0_1_559">
<rect width="24" height="24" fill="white"/>
</clipPath>
</defs>
</svg>
