<svg width="24" height="24" viewBox="0 0 24 24" fill="none" xmlns="http://www.w3.org/2000/svg">
<g clip-path="url(#clip0_1_470)">
<path d="M8.2 10.6728V12.428C7.2432 12.9816 6.6 14.016 6.6 15.2C6.6 16.968 8.032 18.4 9.8 18.4C10.984 18.4 12.0184 17.7568 12.572 16.8H14.3264C13.668 18.664 11.8896 20 9.8 20C7.1488 20 5 17.8512 5 15.2C5 13.1096 6.336 11.332 8.2 10.6728ZM11.4 16C10.0744 16 9 14.9256 9 13.6V10.4C9 9.0744 10.0744 8 11.4 8C12.7256 8 13.8 9.0744 13.8 10.4V14.4H14.9472C15.4656 14.4 15.9496 14.6512 16.248 15.0688L16.3192 15.1768L18.4856 18.7888L17.1144 19.6112L14.9464 16H11.4ZM11.4 4C12.504 4 13.4 4.896 13.4 6C13.4 7.104 12.504 8 11.4 8C10.296 8 9.4 7.104 9.4 6C9.4 4.896 10.296 4 11.4 4Z" fill="black"/>
</g>
<defs>
<clipPath id="clip0_1_470">
<rect width="24" height="24" fill="white"/>
</clipPath>
</defs>
</svg>
