<svg width="49" height="40" viewBox="0 0 49 40" fill="none" xmlns="http://www.w3.org/2000/svg">
<path d="M44.3806 0H35.8194C34.3086 0 33.1 1.20863 33.1 2.71942V11.2806C33.1 12.7914 34.3086 14 35.8194 14H44.3806C45.8913 14 47.1 12.7914 47.1 11.2806V2.71942C47.1 1.20863 45.8913 0 44.3806 0Z" fill="#3DC566"/>
<path d="M43.6755 7.95688V9.36696H42.6683V11.5828H41.0568V9.36696H36.9273L36.6252 8.25904L41.4597 2.3166H42.6683V7.95688H43.6755ZM38.5389 7.95688H40.9561V4.9353L38.5389 7.95688Z" fill="white"/>
<path d="M9.39998 35.3999C11.5 35.3999 13.2 33.5999 13.2 31.3999C13.2 29.1999 11.5 27.3999 9.39998 27.3999C7.29998 27.3999 5.59998 29.1999 5.59998 31.3999C5.59998 33.5999 7.29998 35.3999 9.39998 35.3999Z" fill="black"/>
<path d="M33.3 35.5999C35.5 35.5999 37.3 33.6999 37.3 31.4999C37.3 29.2999 35.5 27.3999 33.3 27.3999C31.1 27.3999 29.3 29.2999 29.3 31.4999C29.3 33.6999 31.1 35.5999 33.3 35.5999Z" fill="black"/>
<path d="M46.4 26.7C46.1 24.6 45.4 21.9 43.9 21.6L37.6 20.1C37.2 20 30.2 15.3 29.3 14.4C26.5 13.1 24.9 13.1 19.5 12.9L19.2 10.6C19.2 10.3 18.9 10 18.6 10H17.4C17.1 10 16.8 10.3 16.8 10.6L16.5 12.8C15.5 12.8 9.09998 14 7.19998 14.3C6.79998 14.4 4.39998 17 3.99998 17.5C3.19998 18.6 2.59998 21.3 2.59998 21.3C2.59998 21.3 1.89998 23 1.89998 25.2H1.59998C1.09998 25.2 1.09998 30.5 1.09998 31V31.9C1.09998 32.4 1.49998 32.8 1.89998 32.8H4.19998C4.59998 32.8 4.99998 32.4 4.99998 32V31.1C4.99998 31.1 4.99998 31.1 4.99998 31C5.19998 28.1 7.39998 26.6 9.49998 26.7C12 26.8 13.7 28.8 13.7 30.6V32.1C13.7 32.5 14 32.8 14.4 32.8H28.1C28.5 32.8 28.8 32.5 28.8 32.1V31C28.8 28.3 31.1 26.5 33.5 26.7C37.3 26.9 38.5 30.8 37.7 32.9H38.3C38.5 33.2 38.8 33.3 39.1 33.3L45.3 33.2C45.8 33.2 46.2 32.8 46.2 32.2V28.9C46.2 28.6 46.2 28.2 46 28.1C46 28 46.4 27.4 46.4 26.7ZM16.5 31.3L18.8 25C19 24.5 18.7 24 18.2 24H15.9C15.4 24 15.1 23.4 15.4 22.9L21 14C21.1 13.8 21.4 14 21.3 14.2L20.2 20.2C20 20.7 20.4 21.2 20.9 21.2H23.6C24 21.2 24.3 21.7 24 22.1L17.1 31.6C16.8 31.8 16.4 31.6 16.5 31.3Z" fill="#3DC566"/>
</svg>
