<svg width="49" height="40" viewBox="0 0 49 40" fill="none" xmlns="http://www.w3.org/2000/svg">
<path d="M44.2806 0H35.7194C34.2086 0 33 1.20863 33 2.71942V11.2806C33 12.7914 34.2086 14 35.7194 14H44.2806C45.7914 14 47 12.7914 47 11.2806V2.71942C47 1.20863 45.7914 0 44.2806 0Z" fill="#3DC566"/>
<path d="M43.4749 7.95688V9.36696H42.4677V11.5828H40.8562V9.36696H36.7267L36.4245 8.25904L41.259 2.3166H42.4677V7.95688H43.4749ZM38.4389 7.95688H40.9569V4.9353L38.4389 7.95688Z" fill="white"/>
<path d="M18.1269 20.2C18.2265 18.9 17.5293 18 17.131 17.5C16.5334 16.7 16.135 14.7 16.135 14.7C15.9358 15 15.5374 15.8 15.2386 16.2C15.2386 16.2 15.139 16.3 15.139 16.4C14.5414 17.2 13.7446 18.3 13.645 19.7C13.5454 21.1 14.4418 22 15.637 22.1C16.9318 22.3 18.0273 21.6 18.1269 20.2ZM15.2386 19.6C15.2386 20.1 14.9398 20.3 14.641 20.3C14.3422 20.3 14.143 19.9 14.2426 19.5C14.3422 18.7 14.9398 17.9 14.9398 17.9C14.9398 17.9 14.9398 18.5 15.139 18.7V18.8C15.139 19 15.2386 19.2 15.2386 19.6Z" fill="#3DC566"/>
<path d="M24.5012 15.1L19.7205 21.1L15.139 27.1C16.4338 28 17.9277 28.4 19.4217 28.4C19.8201 28.4 20.2185 28.4 20.6169 28.3C22.6089 28 24.4016 26.9 25.5968 25.3C26.792 23.7 27.29 21.6 26.9912 19.6C26.792 17.9 25.8956 16.3 24.5012 15.1ZM21.2145 27.2L22.9077 23.3H20.1189L24.1028 18L22.5093 22.3H25.3976L21.2145 27.2Z" fill="#3DC566"/>
<path fill-rule="evenodd" clip-rule="evenodd" d="M46.1141 26.4L46.612 26.9C46.8112 27 46.8112 27.4 46.8112 27.7V32.3C46.8112 32.9 46.4128 33.3 45.9149 33.3L37.8474 33.4C37.5486 33.4 37.2498 33.3 37.0506 33H36.453C37.2498 30.9 36.0546 27 32.2699 26.8C29.8795 26.6 27.5888 28.4 27.5888 31.1V32.2C27.5888 32.6 27.29 32.9 26.8916 32.9H13.2466C12.8482 32.9 12.5494 32.6 12.5494 32.2V30.7C12.5494 28.9 10.8562 26.9 8.36627 26.8C6.2747 26.7 4.08353 28.2 3.88434 31.1V31.2V32.1C3.88434 32.5 3.48594 32.9 3.08755 32.9H0.796787C0.398394 32.9 0 32.5 0 32V31.1C0 30.7 0 25.8 0.497992 25.8H0.697189C0.697189 23.6 1.39438 20.8 1.39438 20.8C1.39438 20.8 1.39438 20.3 2.39036 20.4C2.85673 19.4635 3.51964 17.4527 4.17458 15.466C4.91833 13.2099 5.65181 10.9849 6.0755 10.4C6.39335 10.0011 7.53533 9.79316 8.18643 9.6746C8.35143 9.64455 8.48491 9.62024 8.56546 9.60002C10.4578 9.30002 11.155 9.20002 12.5494 9.20002H15.6369L15.9357 7.00002C15.9357 6.70002 16.2345 6.40002 16.5333 6.40002H17.7285C18.0273 6.40002 18.3261 6.70002 18.3261 7.00002L18.6249 9.30002C24.0032 9.50002 28.0867 9.80002 28.9831 10.7C29.8795 11.5 35.3574 18.3 35.3574 18.3C35.7558 18.6 36.1542 18.8 36.5526 18.9L40.2196 19.4098L41.2337 18H39.7398C38.8434 18 38.8434 17.4 38.8434 16.5C38.8434 15.6 39.441 15.6 40.3373 15.6H42.1301C42.9269 15.6 43.6241 15.6 43.6241 16.5C43.6241 16.9 43.5245 17.3 43.2257 17.5L42.5153 19.729L43.0265 19.8C44.5205 20.1 45.8153 22.8 46.1141 24.9C46.2469 25.2334 46.2026 25.5667 46.1583 25.9C46.1362 26.0667 46.1141 26.2334 46.1141 26.4ZM19.5213 29.9C20.0193 29.9 20.4177 29.9 20.9157 29.8C25.796 29 29.1823 24.4 28.4851 19.5C27.788 15 23.9036 11.8 19.5213 11.8C19.0233 11.8 18.6249 11.8 18.1269 11.9C13.147 12.6 9.76064 17.3 10.5574 22.2C11.2546 26.7 15.139 29.9 19.5213 29.9Z" fill="#3DC566"/>
<path d="M8.26667 35.6C10.3582 35.6 12.0514 33.8 12.0514 31.6C12.0514 29.4 10.3582 27.6 8.26667 27.6C6.17511 27.6 4.48193 29.4 4.48193 31.6C4.48193 33.8 6.17511 35.6 8.26667 35.6Z" fill="black"/>
<path d="M32.0707 35.8C34.2618 35.8 36.0546 33.9 36.0546 31.7C36.0546 29.4 34.2618 27.6 32.0707 27.6C29.8795 27.6 28.0867 29.5 28.0867 31.7C28.0867 33.9 29.8795 35.8 32.0707 35.8Z" fill="black"/>
</svg>
