<svg width="48" height="40" viewBox="0 0 48 40" fill="none" xmlns="http://www.w3.org/2000/svg">
<g clip-path="url(#clip0_1_170)">
<path d="M33.6523 33.5004C33.6462 31.4242 35.3203 29.7364 37.3874 29.7334C39.4057 29.7303 41.1423 31.4943 41.1255 33.5294C41.1088 35.5599 39.4362 37.2203 37.392 37.2386C35.302 37.2568 33.6599 35.6147 33.6538 33.5004H33.6523Z" fill="black"/>
<path d="M5.17456 33.3481C5.16847 31.3572 6.774 29.7364 8.75731 29.7334C10.6934 29.7303 12.3599 31.4242 12.3431 33.3755C12.3264 35.3238 10.7223 36.9171 8.76036 36.9339C6.75572 36.9522 5.17913 35.3756 5.17303 33.3481H5.17456Z" fill="black"/>
<path d="M45.6207 32.2679C45.6969 31.1955 46 28.7217 46 27.1847C46 26.2707 45.543 25.5091 44.329 25.3446L34.9562 23.9736C34.4231 23.8838 33.9417 23.5989 33.6081 23.1724C32.6256 21.9187 30.4763 19.2301 29.4176 18.2141C29.1007 17.911 28.6818 17.7358 28.2431 17.7221L22.9619 17.5104L22.8187 15.5012C22.8187 15.2239 22.5186 15 22.15 15H20.5292C20.1591 15 19.8605 15.2239 19.8605 15.5012L19.7189 17.4906L12.8793 17.8592C12.4467 17.8805 12.0537 18.1212 11.8374 18.4959L8.57759 22.9728C7.95457 23.8289 7.0147 24.3986 5.96669 24.5571C4.42513 24.7886 2.96887 25.1024 1.61468 25.2608C1.12266 25.3187 0.749454 25.7285 0.738791 26.222C0.706802 27.6036 0.658057 30.6349 0.708325 32.3669H0.638254C0.284853 32.3669 0 32.6533 0 33.0052V33.7074C0 34.0608 0.286377 34.3457 0.638254 34.3457H2.86377C3.21717 34.3457 3.50202 34.0593 3.50202 33.7074C3.50202 33.7394 3.49745 33.7714 3.49288 33.8018C3.87065 33.7988 4.1875 33.7957 4.35049 33.7957C4.11133 30.5375 6.39625 28.8618 8.68117 28.8618C10.9661 28.8618 12.9464 30.3851 13.0134 32.2786C12.9707 32.3654 12.9464 32.4614 12.9464 32.5634V33.2931C12.9464 33.6556 13.2403 33.9481 13.6014 33.9481H32.3971C32.7597 33.9481 33.0521 33.6541 33.0521 33.2931V32.5634C33.0521 32.4446 33.0186 32.3349 32.9638 32.239C33.3309 29.9479 35.1847 28.8664 37.4833 28.8634C39.782 28.8603 41.6023 30.1978 41.7363 32.8589V33.3875C41.7363 33.3951 41.7363 33.4027 41.7363 33.4104V33.5535C41.7363 33.9069 42.0227 34.1918 42.3746 34.1918H45.3617C45.7151 34.1918 46 33.9054 46 33.5535V32.8513C46 32.5908 45.8431 32.3684 45.6207 32.2679ZM22.0068 25.1633C20.5612 25.1496 10.7879 25.1557 10.7879 25.1557C10.3568 25.1557 10.0521 24.9013 10.2547 24.3514L12.9037 20.0999C13.0073 19.7191 13.379 19.6292 13.6303 19.6247C15.9716 19.5866 19.1674 19.6049 21.5102 19.5957C21.9962 19.5942 22.2414 19.774 22.2323 20.2904L22.6877 24.5068C22.6938 24.9821 22.479 25.1679 22.0083 25.1633H22.0068ZM31.8518 25.0643C30.0802 25.0826 27.8349 25.1222 25.5576 25.1557C24.7411 25.1679 24.5218 24.9013 24.5218 24.292L23.9566 20.4579C23.949 19.9232 23.8896 19.6262 24.4258 19.6079L28.3696 19.7115C28.7321 19.7191 29.0718 19.8836 29.3003 20.1654C29.8944 20.8966 31.506 23.1374 32.2844 24.2052C32.5433 24.5616 32.292 25.0613 31.8518 25.0658V25.0643Z" fill="#30C0DF"/>
<g clip-path="url(#clip1_1_170)">
<path d="M44.2719 0H35.7281C34.2214 0 33 1.22139 33 2.72806V11.2719C33 12.7786 34.2214 14 35.7281 14H44.2719C45.7786 14 47 12.7786 47 11.2719V2.72806C47 1.22139 45.7786 0 44.2719 0Z" fill="#30C0DF"/>
<path d="M43.5 7.89708V9.32186H42.5088V11.49H40.9235V9.32186H36.835L36.5 8.24353L41.3319 2.33333H42.5088V7.89708H43.5ZM38.4708 7.89708H40.9235V4.87316L38.4708 7.89708Z" fill="white"/>
</g>
</g>
<defs>
<clipPath id="clip0_1_170">
<rect width="48" height="40" fill="white"/>
</clipPath>
<clipPath id="clip1_1_170">
<rect width="14" height="14" fill="white" transform="translate(33)"/>
</clipPath>
</defs>
</svg>
