<svg width="50" height="40" viewBox="0 0 50 40" fill="none" xmlns="http://www.w3.org/2000/svg">
<path d="M45.2719 0H36.7281C35.2214 0 34 1.22139 34 2.72806V11.2719C34 12.7786 35.2214 14 36.7281 14H45.2719C46.7786 14 48 12.7786 48 11.2719V2.72806C48 1.22139 46.7786 0 45.2719 0Z" fill="#30C0DF"/>
<path d="M44.5 7.89713V9.3219H43.5088V11.49H41.9235V9.3219H37.835L37.5 8.24357L42.3319 2.33337H43.5088V7.89713H44.5ZM39.4708 7.89713H41.9235V4.8732L39.4708 7.89713Z" fill="white"/>
<path d="M16.4111 31.3492C16.3914 34.2827 14.1307 36.4918 11.1821 36.4611C8.34635 36.4304 6.09458 34.1165 6.10354 31.2408C6.1125 28.3814 8.52549 25.9808 11.3272 26.0405C14.2024 26.1019 16.4309 28.4284 16.4094 31.3474L16.4111 31.3492Z" fill="black"/>
<path d="M33.5445 36.2348C30.7045 36.2401 28.5378 34.0491 28.5115 31.1477C28.4871 28.3523 30.7814 26.0376 33.5672 26.0394C36.2673 26.0429 38.5879 28.3912 38.5949 31.1318C38.6019 33.966 36.3617 36.2295 33.5427 36.2348H33.5445Z" fill="black"/>
<path d="M42.8128 28.8717C42.9447 26.3446 43.2186 22.6411 41.3073 21.5083C40.5237 20.8997 36.9832 18.3459 36.9832 18.3459C35 16.0001 32.5 12.5001 29.4742 9.25699C28.2722 8.06976 26.8538 7.41754 23.661 7.44273C22.2728 7.45311 20.4608 7.20681 19.4596 7.21571L19.1869 4.82644C19.1869 4.45441 18.8864 4.15353 18.517 4.15353L16.842 4.1535C16.4711 4.1535 16.172 4.45438 16.172 4.82641L15.9096 7.24087C13.3047 7.25866 12.9105 7.17708 8.54564 7.44273C7.2331 7.52262 5.80586 7.81481 5.01133 10.0218C5.01133 10.0218 2.5849 16.9937 2 18.0001C1.4151 19.0065 1.1453 21.2478 0.995773 22.641C0.995773 25.1088 0.796269 28.551 0.995773 31.1372C0.997239 32.028 1.44457 32.7676 2.16726 32.8136C3.00429 32.8655 3.98096 32.8462 4.33424 32.8358C4.82092 32.821 5.20939 32.4297 5.23431 31.9376C5.04653 28.3052 7.13523 25.1332 11.0566 25.1332C15.0761 25.0384 17.5183 28.8716 17.1137 31.7288C17.1826 32.3632 17.7074 32.8449 18.3392 32.8449L26.7421 32.8617C27.522 32.8617 27.7908 31.9194 27.6925 31.1372C27.3023 28.0338 29.8232 25.1332 33.6045 25.1332C37.3859 25.1332 39.6267 28.0338 39.0665 31.7036C39.1324 32.3425 39.305 32.8987 39.9397 32.9061C40.4601 32.9106 40.1845 32.9135 40.9146 32.8883C41.9275 32.8542 42.7981 32.9766 42.8128 31.9376C42.8231 31.2603 42.8128 30.0045 42.8128 28.8717ZM12.4641 19.2257C12.4641 19.6985 12.0844 20.0824 11.6168 20.0824L8.78064 19.995H7.5C6.21936 19.9075 5.5 19.995 5 19.0001C4.5 18.0051 4.93071 15.9338 5.01133 15.4817L6.1826 10.7243C6.26322 10.2722 6.6456 9.94465 7.09857 9.94465L11.5992 10.0217C12.0961 10.0217 12.4993 10.4293 12.4993 10.9317L12.4641 19.2257ZM22.4068 19.2426C22.4068 19.7866 21.9714 20.0825 21.4334 20.0825L14.6627 20.0824C14.2258 20.0824 13.8725 19.7252 13.8725 19.2835L13.9077 10.831C13.9077 10.3834 14.2654 10.0217 14.7081 10.0217L21.624 10.0218C22.0769 10.0218 22.4434 10.3923 22.4434 10.8503L22.4434 18.3459L22.4068 19.2426ZM34.2348 20.0825C31.451 20.0825 26.246 20.0914 25.1011 20.0825C24.1116 20.0751 23.773 20.2475 23.7642 19.2426C23.7554 18.1947 23.7539 12.4511 23.7642 11.4032C23.773 10.4753 24.1541 10.0781 25.0615 10.0722C26.7664 10.0618 25.5975 10.0025 27.3023 10.0217C27.7694 10.0217 28.1169 10.1853 28.3002 10.3335C29.9757 11.6793 34 17.5001 34.5849 18.6762C35.0456 19.6026 34.8165 20.0825 34.2348 20.0825Z" fill="#30C0DF"/>
</svg>
